<svg width="78" height="78" viewBox="0 0 78 78" fill="none" xmlns="http://www.w3.org/2000/svg">
<path d="M31.5575 36.6925C30.9455 36.0805 30.1155 35.7367 29.25 35.7367C28.3845 35.7367 27.5545 36.0805 26.9425 36.6925C26.3305 37.3045 25.9867 38.1345 25.9867 39C25.9867 39.8655 26.3305 40.6955 26.9425 41.3075L36.6925 51.0575C36.9962 51.3587 37.3563 51.597 37.7523 51.7588C38.1483 51.9205 38.5723 52.0025 39 52C39.4449 51.9859 39.8822 51.8805 40.2847 51.6905C40.6872 51.5004 41.0464 51.2296 41.34 50.895L64.09 24.895C64.6153 24.2428 64.8686 23.413 64.797 22.5787C64.7255 21.7443 64.3346 20.9698 63.706 20.4165C63.0773 19.8633 62.2593 19.5741 61.4226 19.6092C60.586 19.6443 59.7951 20.0011 59.215 20.605L39 44.005L31.5575 36.6925Z" fill="#007370"/>
<path d="M68.25 35.75C67.388 35.75 66.5614 36.0924 65.9519 36.7019C65.3424 37.3114 65 38.138 65 39C65 45.8956 62.2607 52.5088 57.3848 57.3848C52.5088 62.2607 45.8956 65 39 65C33.8653 64.9977 28.8462 63.475 24.5757 60.624C20.3052 57.773 16.9745 53.7214 15.0036 48.98C13.0326 44.2386 12.5097 39.0198 13.5008 33.9816C14.4919 28.9435 16.9525 24.3116 20.5725 20.67C22.9798 18.2305 25.8495 16.2956 29.0136 14.9786C32.1777 13.6617 35.5727 12.989 39 13C41.0782 13.013 43.1488 13.2528 45.175 13.715C45.599 13.8462 46.0454 13.8891 46.4866 13.8411C46.9279 13.7931 47.3546 13.6553 47.7405 13.4361C48.1265 13.2169 48.4634 12.9209 48.7306 12.5665C48.9977 12.2121 49.1895 11.8067 49.294 11.3754C49.3985 10.944 49.4135 10.4958 49.3382 10.0584C49.2629 9.62103 49.0987 9.2037 48.8559 8.83217C48.6131 8.46064 48.2968 8.14278 47.9264 7.89819C47.5561 7.65359 47.1395 7.48745 46.7025 7.41C44.1777 6.81604 41.5937 6.51075 39 6.5C32.5791 6.53336 26.312 8.46794 20.9895 12.0596C15.667 15.6513 11.5277 20.7391 9.09389 26.681C6.66012 32.6228 6.04097 39.1525 7.31457 45.4459C8.58816 51.7393 11.6974 57.5145 16.25 62.0425C22.2842 68.0795 30.4644 71.4801 39 71.5C47.6195 71.5 55.886 68.0759 61.981 61.981C68.0759 55.886 71.5 47.6195 71.5 39C71.5 38.138 71.1576 37.3114 70.5481 36.7019C69.9386 36.0924 69.112 35.75 68.25 35.75Z" fill="#007370"/>
</svg>
