<svg width="1058" height="361" viewBox="0 0 1058 361" fill="none" xmlns="http://www.w3.org/2000/svg">
<rect x="163" y="30" width="735.005" height="51" rx="1" fill="#EDF1F5"/>
<rect x="341.418" y="30" width="556.587" height="51" rx="25.5" fill="#007370"/>
<rect x="846.613" y="30" width="211.387" height="51" rx="25.5" fill="#FFDE59"/>
<path d="M167.74 17.105C166.97 17.105 166.28 16.98 165.67 16.73C165.06 16.48 164.57 16.11 164.2 15.62C163.84 15.13 163.65 14.54 163.63 13.85H166.36C166.4 14.24 166.535 14.54 166.765 14.75C166.995 14.95 167.295 15.05 167.665 15.05C168.045 15.05 168.345 14.965 168.565 14.795C168.785 14.615 168.895 14.37 168.895 14.06C168.895 13.8 168.805 13.585 168.625 13.415C168.455 13.245 168.24 13.105 167.98 12.995C167.73 12.885 167.37 12.76 166.9 12.62C166.22 12.41 165.665 12.2 165.235 11.99C164.805 11.78 164.435 11.47 164.125 11.06C163.815 10.65 163.66 10.115 163.66 9.455C163.66 8.475 164.015 7.71 164.725 7.16C165.435 6.6 166.36 6.32 167.5 6.32C168.66 6.32 169.595 6.6 170.305 7.16C171.015 7.71 171.395 8.48 171.445 9.47H168.67C168.65 9.13 168.525 8.865 168.295 8.675C168.065 8.475 167.77 8.375 167.41 8.375C167.1 8.375 166.85 8.46 166.66 8.63C166.47 8.79 166.375 9.025 166.375 9.335C166.375 9.675 166.535 9.94 166.855 10.13C167.175 10.32 167.675 10.525 168.355 10.745C169.035 10.975 169.585 11.195 170.005 11.405C170.435 11.615 170.805 11.92 171.115 12.32C171.425 12.72 171.58 13.235 171.58 13.865C171.58 14.465 171.425 15.01 171.115 15.5C170.815 15.99 170.375 16.38 169.795 16.67C169.215 16.96 168.53 17.105 167.74 17.105ZM183.839 8.54C184.879 8.54 185.704 8.855 186.314 9.485C186.934 10.115 187.244 10.99 187.244 12.11V17H184.694V12.455C184.694 11.915 184.549 11.5 184.259 11.21C183.979 10.91 183.589 10.76 183.089 10.76C182.589 10.76 182.194 10.91 181.904 11.21C181.624 11.5 181.484 11.915 181.484 12.455V17H178.934V12.455C178.934 11.915 178.789 11.5 178.499 11.21C178.219 10.91 177.829 10.76 177.329 10.76C176.829 10.76 176.434 10.91 176.144 11.21C175.864 11.5 175.724 11.915 175.724 12.455V17H173.159V8.63H175.724V9.68C175.984 9.33 176.324 9.055 176.744 8.855C177.164 8.645 177.639 8.54 178.169 8.54C178.799 8.54 179.359 8.675 179.849 8.945C180.349 9.215 180.739 9.6 181.019 10.1C181.309 9.64 181.704 9.265 182.204 8.975C182.704 8.685 183.249 8.54 183.839 8.54ZM188.527 12.8C188.527 11.94 188.687 11.185 189.007 10.535C189.337 9.885 189.782 9.385 190.342 9.035C190.902 8.685 191.527 8.51 192.217 8.51C192.807 8.51 193.322 8.63 193.762 8.87C194.212 9.11 194.557 9.425 194.797 9.815V8.63H197.362V17H194.797V15.815C194.547 16.205 194.197 16.52 193.747 16.76C193.307 17 192.792 17.12 192.202 17.12C191.522 17.12 190.902 16.945 190.342 16.595C189.782 16.235 189.337 15.73 189.007 15.08C188.687 14.42 188.527 13.66 188.527 12.8ZM194.797 12.815C194.797 12.175 194.617 11.67 194.257 11.3C193.907 10.93 193.477 10.745 192.967 10.745C192.457 10.745 192.022 10.93 191.662 11.3C191.312 11.66 191.137 12.16 191.137 12.8C191.137 13.44 191.312 13.95 191.662 14.33C192.022 14.7 192.457 14.885 192.967 14.885C193.477 14.885 193.907 14.7 194.257 14.33C194.617 13.96 194.797 13.455 194.797 12.815ZM201.783 10.025C202.083 9.565 202.458 9.205 202.908 8.945C203.358 8.675 203.858 8.54 204.408 8.54V11.255H203.703C203.063 11.255 202.583 11.395 202.263 11.675C201.943 11.945 201.783 12.425 201.783 13.115V17H199.218V8.63H201.783V10.025ZM210.299 14.825V17H208.994C208.064 17 207.339 16.775 206.819 16.325C206.299 15.865 206.039 15.12 206.039 14.09V10.76H205.019V8.63H206.039V6.59H208.604V8.63H210.284V10.76H208.604V14.12C208.604 14.37 208.664 14.55 208.784 14.66C208.904 14.77 209.104 14.825 209.384 14.825H210.299ZM213.018 7.76C212.568 7.76 212.198 7.63 211.908 7.37C211.628 7.1 211.488 6.77 211.488 6.38C211.488 5.98 211.628 5.65 211.908 5.39C212.198 5.12 212.568 4.985 213.018 4.985C213.458 4.985 213.818 5.12 214.098 5.39C214.388 5.65 214.533 5.98 214.533 6.38C214.533 6.77 214.388 7.1 214.098 7.37C213.818 7.63 213.458 7.76 213.018 7.76ZM214.293 8.63V17H211.728V8.63H214.293ZM221.252 8.54C222.232 8.54 223.012 8.86 223.592 9.5C224.182 10.13 224.477 11 224.477 12.11V17H221.927V12.455C221.927 11.895 221.782 11.46 221.492 11.15C221.202 10.84 220.812 10.685 220.322 10.685C219.832 10.685 219.442 10.84 219.152 11.15C218.862 11.46 218.717 11.895 218.717 12.455V17H216.152V8.63H218.717V9.74C218.977 9.37 219.327 9.08 219.767 8.87C220.207 8.65 220.702 8.54 221.252 8.54ZM225.749 12.815C225.749 11.945 225.924 11.185 226.274 10.535C226.634 9.885 227.129 9.385 227.759 9.035C228.399 8.685 229.129 8.51 229.949 8.51C230.999 8.51 231.874 8.785 232.574 9.335C233.284 9.885 233.749 10.66 233.969 11.66H231.239C231.009 11.02 230.564 10.7 229.904 10.7C229.434 10.7 229.059 10.885 228.779 11.255C228.499 11.615 228.359 12.135 228.359 12.815C228.359 13.495 228.499 14.02 228.779 14.39C229.059 14.75 229.434 14.93 229.904 14.93C230.564 14.93 231.009 14.61 231.239 13.97H233.969C233.749 14.95 233.284 15.72 232.574 16.28C231.864 16.84 230.989 17.12 229.949 17.12C229.129 17.12 228.399 16.945 227.759 16.595C227.129 16.245 226.634 15.745 226.274 15.095C225.924 14.445 225.749 13.685 225.749 12.815ZM239.151 17.12C238.331 17.12 237.591 16.945 236.931 16.595C236.281 16.245 235.766 15.745 235.386 15.095C235.016 14.445 234.831 13.685 234.831 12.815C234.831 11.955 235.021 11.2 235.401 10.55C235.781 9.89 236.301 9.385 236.961 9.035C237.621 8.685 238.361 8.51 239.181 8.51C240.001 8.51 240.741 8.685 241.401 9.035C242.061 9.385 242.581 9.89 242.961 10.55C243.341 11.2 243.531 11.955 243.531 12.815C243.531 13.675 243.336 14.435 242.946 15.095C242.566 15.745 242.041 16.245 241.371 16.595C240.711 16.945 239.971 17.12 239.151 17.12ZM239.151 14.9C239.641 14.9 240.056 14.72 240.396 14.36C240.746 14 240.921 13.485 240.921 12.815C240.921 12.145 240.751 11.63 240.411 11.27C240.081 10.91 239.671 10.73 239.181 10.73C238.681 10.73 238.266 10.91 237.936 11.27C237.606 11.62 237.441 12.135 237.441 12.815C237.441 13.485 237.601 14 237.921 14.36C238.251 14.72 238.661 14.9 239.151 14.9ZM255.572 8.54C256.612 8.54 257.437 8.855 258.047 9.485C258.667 10.115 258.977 10.99 258.977 12.11V17H256.427V12.455C256.427 11.915 256.282 11.5 255.992 11.21C255.712 10.91 255.322 10.76 254.822 10.76C254.322 10.76 253.927 10.91 253.637 11.21C253.357 11.5 253.217 11.915 253.217 12.455V17H250.667V12.455C250.667 11.915 250.522 11.5 250.232 11.21C249.952 10.91 249.562 10.76 249.062 10.76C248.562 10.76 248.167 10.91 247.877 11.21C247.597 11.5 247.457 11.915 247.457 12.455V17H244.892V8.63H247.457V9.68C247.717 9.33 248.057 9.055 248.477 8.855C248.897 8.645 249.372 8.54 249.902 8.54C250.532 8.54 251.092 8.675 251.582 8.945C252.082 9.215 252.472 9.6 252.752 10.1C253.042 9.64 253.437 9.265 253.937 8.975C254.437 8.685 254.982 8.54 255.572 8.54ZM268.661 12.68C268.661 12.92 268.646 13.17 268.616 13.43H262.811C262.851 13.95 263.016 14.35 263.306 14.63C263.606 14.9 263.971 15.035 264.401 15.035C265.041 15.035 265.486 14.765 265.736 14.225H268.466C268.326 14.775 268.071 15.27 267.701 15.71C267.341 16.15 266.886 16.495 266.336 16.745C265.786 16.995 265.171 17.12 264.491 17.12C263.671 17.12 262.941 16.945 262.301 16.595C261.661 16.245 261.161 15.745 260.801 15.095C260.441 14.445 260.261 13.685 260.261 12.815C260.261 11.945 260.436 11.185 260.786 10.535C261.146 9.885 261.646 9.385 262.286 9.035C262.926 8.685 263.661 8.51 264.491 8.51C265.301 8.51 266.021 8.68 266.651 9.02C267.281 9.36 267.771 9.845 268.121 10.475C268.481 11.105 268.661 11.84 268.661 12.68ZM266.036 12.005C266.036 11.565 265.886 11.215 265.586 10.955C265.286 10.695 264.911 10.565 264.461 10.565C264.031 10.565 263.666 10.69 263.366 10.94C263.076 11.19 262.896 11.545 262.826 12.005H266.036Z" fill="black" fill-opacity="0.8"/>
<path d="M17.14 46.96V61H13.72V52.58L10.58 61H7.82L4.66 52.56V61H1.24V46.96H5.28L9.22 56.68L13.12 46.96H17.14ZM30.6194 49.84V61H27.1994V59.48C26.8527 59.9733 26.3794 60.3733 25.7794 60.68C25.1927 60.9733 24.5394 61.12 23.8194 61.12C22.966 61.12 22.2127 60.9333 21.5594 60.56C20.906 60.1733 20.3994 59.62 20.0394 58.9C19.6794 58.18 19.4994 57.3333 19.4994 56.36V49.84H22.8994V55.9C22.8994 56.6467 23.0927 57.2267 23.4794 57.64C23.866 58.0533 24.386 58.26 25.0394 58.26C25.706 58.26 26.2327 58.0533 26.6194 57.64C27.006 57.2267 27.1994 56.6467 27.1994 55.9V49.84H30.6194ZM36.4959 46.2V61H33.0759V46.2H36.4959ZM45.1944 58.1V61H43.4544C42.2144 61 41.2477 60.7 40.5544 60.1C39.861 59.4867 39.5144 58.4933 39.5144 57.12V52.68H38.1544V49.84H39.5144V47.12H42.9344V49.84H45.1744V52.68H42.9344V57.16C42.9344 57.4933 43.0144 57.7333 43.1744 57.88C43.3344 58.0267 43.601 58.1 43.9744 58.1H45.1944ZM48.8194 48.68C48.2194 48.68 47.726 48.5067 47.3394 48.16C46.966 47.8 46.7794 47.36 46.7794 46.84C46.7794 46.3067 46.966 45.8667 47.3394 45.52C47.726 45.16 48.2194 44.98 48.8194 44.98C49.406 44.98 49.886 45.16 50.2594 45.52C50.646 45.8667 50.8394 46.3067 50.8394 46.84C50.8394 47.36 50.646 47.8 50.2594 48.16C49.886 48.5067 49.406 48.68 48.8194 48.68ZM50.5194 49.84V61H47.0994V49.84H50.5194ZM58.5978 52.68H56.7578V61H53.3378V52.68H52.0978V49.84H53.3378V49.52C53.3378 48.1467 53.7311 47.1067 54.5178 46.4C55.3045 45.68 56.4578 45.32 57.9778 45.32C58.2311 45.32 58.4178 45.3267 58.5378 45.34V48.24C57.8845 48.2 57.4245 48.2933 57.1578 48.52C56.8911 48.7467 56.7578 49.1533 56.7578 49.74V49.84H58.5978V52.68ZM61.9248 48.68C61.3248 48.68 60.8315 48.5067 60.4448 48.16C60.0715 47.8 59.8848 47.36 59.8848 46.84C59.8848 46.3067 60.0715 45.8667 60.4448 45.52C60.8315 45.16 61.3248 44.98 61.9248 44.98C62.5115 44.98 62.9915 45.16 63.3648 45.52C63.7515 45.8667 63.9448 46.3067 63.9448 46.84C63.9448 47.36 63.7515 47.8 63.3648 48.16C62.9915 48.5067 62.5115 48.68 61.9248 48.68ZM63.6248 49.84V61H60.2048V49.84H63.6248ZM72.9033 49.72C74.2099 49.72 75.2499 50.1467 76.0233 51C76.8099 51.84 77.2033 53 77.2033 54.48V61H73.8033V54.94C73.8033 54.1933 73.6099 53.6133 73.2233 53.2C72.8366 52.7867 72.3166 52.58 71.6633 52.58C71.0099 52.58 70.4899 52.7867 70.1033 53.2C69.7166 53.6133 69.5233 54.1933 69.5233 54.94V61H66.1033V49.84H69.5233V51.32C69.8699 50.8267 70.3366 50.44 70.9233 50.16C71.5099 49.8667 72.1699 49.72 72.9033 49.72ZM78.8998 55.4C78.8998 54.2533 79.1132 53.2467 79.5398 52.38C79.9798 51.5133 80.5732 50.8467 81.3198 50.38C82.0665 49.9133 82.8998 49.68 83.8198 49.68C84.6065 49.68 85.2932 49.84 85.8798 50.16C86.4798 50.48 86.9398 50.9 87.2598 51.42V49.84H90.6798V61H87.2598V59.42C86.9265 59.94 86.4598 60.36 85.8598 60.68C85.2732 61 84.5865 61.16 83.7998 61.16C82.8932 61.16 82.0665 60.9267 81.3198 60.46C80.5732 59.98 79.9798 59.3067 79.5398 58.44C79.1132 57.56 78.8998 56.5467 78.8998 55.4ZM87.2598 55.42C87.2598 54.5667 87.0198 53.8933 86.5398 53.4C86.0732 52.9067 85.4998 52.66 84.8198 52.66C84.1398 52.66 83.5598 52.9067 83.0798 53.4C82.6132 53.88 82.3798 54.5467 82.3798 55.4C82.3798 56.2533 82.6132 56.9333 83.0798 57.44C83.5598 57.9333 84.1398 58.18 84.8198 58.18C85.4998 58.18 86.0732 57.9333 86.5398 57.44C87.0198 56.9467 87.2598 56.2733 87.2598 55.42ZM99.9541 49.72C101.261 49.72 102.301 50.1467 103.074 51C103.861 51.84 104.254 53 104.254 54.48V61H100.854V54.94C100.854 54.1933 100.661 53.6133 100.274 53.2C99.8874 52.7867 99.3674 52.58 98.7141 52.58C98.0607 52.58 97.5407 52.7867 97.1541 53.2C96.7674 53.6133 96.5741 54.1933 96.5741 54.94V61H93.1541V49.84H96.5741V51.32C96.9207 50.8267 97.3874 50.44 97.9741 50.16C98.5607 49.8667 99.2207 49.72 99.9541 49.72ZM105.951 55.42C105.951 54.26 106.184 53.2467 106.651 52.38C107.131 51.5133 107.791 50.8467 108.631 50.38C109.484 49.9133 110.457 49.68 111.551 49.68C112.951 49.68 114.117 50.0467 115.051 50.78C115.997 51.5133 116.617 52.5467 116.911 53.88H113.271C112.964 53.0267 112.371 52.6 111.491 52.6C110.864 52.6 110.364 52.8467 109.991 53.34C109.617 53.82 109.431 54.5133 109.431 55.42C109.431 56.3267 109.617 57.0267 109.991 57.52C110.364 58 110.864 58.24 111.491 58.24C112.371 58.24 112.964 57.8133 113.271 56.96H116.911C116.617 58.2667 115.997 59.2933 115.051 60.04C114.104 60.7867 112.937 61.16 111.551 61.16C110.457 61.16 109.484 60.9267 108.631 60.46C107.791 59.9933 107.131 59.3267 106.651 58.46C106.184 57.5933 105.951 56.58 105.951 55.42ZM129.26 55.24C129.26 55.56 129.24 55.8933 129.2 56.24H121.46C121.513 56.9333 121.733 57.4667 122.12 57.84C122.52 58.2 123.007 58.38 123.58 58.38C124.433 58.38 125.027 58.02 125.36 57.3H129C128.813 58.0333 128.473 58.6933 127.98 59.28C127.5 59.8667 126.893 60.3267 126.16 60.66C125.427 60.9933 124.607 61.16 123.7 61.16C122.607 61.16 121.633 60.9267 120.78 60.46C119.927 59.9933 119.26 59.3267 118.78 58.46C118.3 57.5933 118.06 56.58 118.06 55.42C118.06 54.26 118.293 53.2467 118.76 52.38C119.24 51.5133 119.907 50.8467 120.76 50.38C121.613 49.9133 122.593 49.68 123.7 49.68C124.78 49.68 125.74 49.9067 126.58 50.36C127.42 50.8133 128.073 51.46 128.54 52.3C129.02 53.14 129.26 54.12 129.26 55.24ZM125.76 54.34C125.76 53.7533 125.56 53.2867 125.16 52.94C124.76 52.5933 124.26 52.42 123.66 52.42C123.087 52.42 122.6 52.5867 122.2 52.92C121.813 53.2533 121.573 53.7267 121.48 54.34H125.76Z" fill="black" fill-opacity="0.8"/>
<path d="M10.38 171.96V174.7H4.66V177.66H8.94V180.32H4.66V186H1.24V171.96H10.38ZM13.8975 173.68C13.2975 173.68 12.8042 173.507 12.4175 173.16C12.0442 172.8 11.8575 172.36 11.8575 171.84C11.8575 171.307 12.0442 170.867 12.4175 170.52C12.8042 170.16 13.2975 169.98 13.8975 169.98C14.4842 169.98 14.9642 170.16 15.3375 170.52C15.7242 170.867 15.9175 171.307 15.9175 171.84C15.9175 172.36 15.7242 172.8 15.3375 173.16C14.9642 173.507 14.4842 173.68 13.8975 173.68ZM15.5975 174.84V186H12.1775V174.84H15.5975ZM24.8759 174.72C26.1826 174.72 27.2226 175.147 27.9959 176C28.7826 176.84 29.1759 178 29.1759 179.48V186H25.7759V179.94C25.7759 179.193 25.5826 178.613 25.1959 178.2C24.8093 177.787 24.2893 177.58 23.6359 177.58C22.9826 177.58 22.4626 177.787 22.0759 178.2C21.6893 178.613 21.4959 179.193 21.4959 179.94V186H18.0759V174.84H21.4959V176.32C21.8426 175.827 22.3093 175.44 22.8959 175.16C23.4826 174.867 24.1426 174.72 24.8759 174.72ZM37.7725 183.1V186H36.0325C34.7925 186 33.8258 185.7 33.1325 185.1C32.4392 184.487 32.0925 183.493 32.0925 182.12V177.68H30.7325V174.84H32.0925V172.12H35.5125V174.84H37.7525V177.68H35.5125V182.16C35.5125 182.493 35.5925 182.733 35.7525 182.88C35.9125 183.027 36.1792 183.1 36.5525 183.1H37.7725ZM50.1975 180.24C50.1975 180.56 50.1775 180.893 50.1375 181.24H42.3975C42.4508 181.933 42.6708 182.467 43.0575 182.84C43.4575 183.2 43.9442 183.38 44.5175 183.38C45.3708 183.38 45.9642 183.02 46.2975 182.3H49.9375C49.7508 183.033 49.4108 183.693 48.9175 184.28C48.4375 184.867 47.8308 185.327 47.0975 185.66C46.3642 185.993 45.5442 186.16 44.6375 186.16C43.5442 186.16 42.5708 185.927 41.7175 185.46C40.8642 184.993 40.1975 184.327 39.7175 183.46C39.2375 182.593 38.9975 181.58 38.9975 180.42C38.9975 179.26 39.2308 178.247 39.6975 177.38C40.1775 176.513 40.8442 175.847 41.6975 175.38C42.5508 174.913 43.5308 174.68 44.6375 174.68C45.7175 174.68 46.6775 174.907 47.5175 175.36C48.3575 175.813 49.0108 176.46 49.4775 177.3C49.9575 178.14 50.1975 179.12 50.1975 180.24ZM46.6975 179.34C46.6975 178.753 46.4975 178.287 46.0975 177.94C45.6975 177.593 45.1975 177.42 44.5975 177.42C44.0242 177.42 43.5375 177.587 43.1375 177.92C42.7508 178.253 42.5108 178.727 42.4175 179.34H46.6975ZM51.3217 180.42C51.3217 179.26 51.5551 178.247 52.0217 177.38C52.5017 176.513 53.1617 175.847 54.0017 175.38C54.8551 174.913 55.8284 174.68 56.9217 174.68C58.3217 174.68 59.4884 175.047 60.4217 175.78C61.3684 176.513 61.9884 177.547 62.2817 178.88H58.6417C58.3351 178.027 57.7417 177.6 56.8617 177.6C56.2351 177.6 55.7351 177.847 55.3617 178.34C54.9884 178.82 54.8017 179.513 54.8017 180.42C54.8017 181.327 54.9884 182.027 55.3617 182.52C55.7351 183 56.2351 183.24 56.8617 183.24C57.7417 183.24 58.3351 182.813 58.6417 181.96H62.2817C61.9884 183.267 61.3684 184.293 60.4217 185.04C59.4751 185.787 58.3084 186.16 56.9217 186.16C55.8284 186.16 54.8551 185.927 54.0017 185.46C53.1617 184.993 52.5017 184.327 52.0217 183.46C51.5551 182.593 51.3217 181.58 51.3217 180.42ZM70.9711 174.72C72.2511 174.72 73.2778 175.147 74.0511 176C74.8244 176.84 75.2111 178 75.2111 179.48V186H71.8111V179.94C71.8111 179.193 71.6178 178.613 71.2311 178.2C70.8444 177.787 70.3244 177.58 69.6711 177.58C69.0178 177.58 68.4978 177.787 68.1111 178.2C67.7244 178.613 67.5311 179.193 67.5311 179.94V186H64.1111V171.2H67.5311V176.34C67.8778 175.847 68.3511 175.453 68.9511 175.16C69.5511 174.867 70.2244 174.72 70.9711 174.72Z" fill="black" fill-opacity="0.8"/>
<path d="M939.585 58.945C939.925 58.675 940.08 58.55 940.05 58.57C941.03 57.76 941.8 57.095 942.36 56.575C942.93 56.055 943.41 55.51 943.8 54.94C944.19 54.37 944.385 53.815 944.385 53.275C944.385 52.865 944.29 52.545 944.1 52.315C943.91 52.085 943.625 51.97 943.245 51.97C942.865 51.97 942.565 52.115 942.345 52.405C942.135 52.685 942.03 53.085 942.03 53.605H939.555C939.575 52.755 939.755 52.045 940.095 51.475C940.445 50.905 940.9 50.485 941.46 50.215C942.03 49.945 942.66 49.81 943.35 49.81C944.54 49.81 945.435 50.115 946.035 50.725C946.645 51.335 946.95 52.13 946.95 53.11C946.95 54.18 946.585 55.175 945.855 56.095C945.125 57.005 944.195 57.895 943.065 58.765H947.115V60.85H939.585V58.945ZM948.244 55.375C948.244 53.655 948.574 52.3 949.234 51.31C949.904 50.32 950.979 49.825 952.459 49.825C953.939 49.825 955.009 50.32 955.669 51.31C956.339 52.3 956.674 53.655 956.674 55.375C956.674 57.115 956.339 58.48 955.669 59.47C955.009 60.46 953.939 60.955 952.459 60.955C950.979 60.955 949.904 60.46 949.234 59.47C948.574 58.48 948.244 57.115 948.244 55.375ZM954.154 55.375C954.154 54.365 954.044 53.59 953.824 53.05C953.604 52.5 953.149 52.225 952.459 52.225C951.769 52.225 951.314 52.5 951.094 53.05C950.874 53.59 950.764 54.365 950.764 55.375C950.764 56.055 950.804 56.62 950.884 57.07C950.964 57.51 951.124 57.87 951.364 58.15C951.614 58.42 951.979 58.555 952.459 58.555C952.939 58.555 953.299 58.42 953.539 58.15C953.789 57.87 953.954 57.51 954.034 57.07C954.114 56.62 954.154 56.055 954.154 55.375ZM960.998 52.81C960.998 52 961.228 51.375 961.688 50.935C962.158 50.495 962.763 50.275 963.503 50.275C964.243 50.275 964.843 50.495 965.303 50.935C965.763 51.375 965.993 52 965.993 52.81C965.993 53.62 965.763 54.245 965.303 54.685C964.843 55.125 964.243 55.345 963.503 55.345C962.763 55.345 962.158 55.125 961.688 54.685C961.228 54.245 960.998 53.62 960.998 52.81ZM971.183 50.44L965.408 61H962.933L968.708 50.44H971.183ZM963.488 51.775C963.008 51.775 962.768 52.12 962.768 52.81C962.768 53.49 963.008 53.83 963.488 53.83C963.718 53.83 963.898 53.745 964.028 53.575C964.158 53.405 964.223 53.15 964.223 52.81C964.223 52.12 963.978 51.775 963.488 51.775ZM968.138 58.63C968.138 57.82 968.368 57.195 968.828 56.755C969.288 56.315 969.888 56.095 970.628 56.095C971.368 56.095 971.968 56.315 972.428 56.755C972.888 57.195 973.118 57.82 973.118 58.63C973.118 59.44 972.888 60.065 972.428 60.505C971.968 60.945 971.368 61.165 970.628 61.165C969.888 61.165 969.288 60.945 968.828 60.505C968.368 60.065 968.138 59.44 968.138 58.63ZM970.613 57.595C970.383 57.595 970.203 57.68 970.073 57.85C969.953 58.02 969.893 58.28 969.893 58.63C969.893 59.31 970.133 59.65 970.613 59.65C970.843 59.65 971.023 59.565 971.153 59.395C971.283 59.225 971.348 58.97 971.348 58.63C971.348 58.29 971.283 58.035 971.153 57.865C971.023 57.685 970.843 57.595 970.613 57.595Z" fill="black" fill-opacity="0.8"/>
<path d="M229.585 58.945C229.925 58.675 230.08 58.55 230.05 58.57C231.03 57.76 231.8 57.095 232.36 56.575C232.93 56.055 233.41 55.51 233.8 54.94C234.19 54.37 234.385 53.815 234.385 53.275C234.385 52.865 234.29 52.545 234.1 52.315C233.91 52.085 233.625 51.97 233.245 51.97C232.865 51.97 232.565 52.115 232.345 52.405C232.135 52.685 232.03 53.085 232.03 53.605H229.555C229.575 52.755 229.755 52.045 230.095 51.475C230.445 50.905 230.9 50.485 231.46 50.215C232.03 49.945 232.66 49.81 233.35 49.81C234.54 49.81 235.435 50.115 236.035 50.725C236.645 51.335 236.95 52.13 236.95 53.11C236.95 54.18 236.585 55.175 235.855 56.095C235.125 57.005 234.195 57.895 233.065 58.765H237.115V60.85H229.585V58.945ZM238.244 55.375C238.244 53.655 238.574 52.3 239.234 51.31C239.904 50.32 240.979 49.825 242.459 49.825C243.939 49.825 245.009 50.32 245.669 51.31C246.339 52.3 246.674 53.655 246.674 55.375C246.674 57.115 246.339 58.48 245.669 59.47C245.009 60.46 243.939 60.955 242.459 60.955C240.979 60.955 239.904 60.46 239.234 59.47C238.574 58.48 238.244 57.115 238.244 55.375ZM244.154 55.375C244.154 54.365 244.044 53.59 243.824 53.05C243.604 52.5 243.149 52.225 242.459 52.225C241.769 52.225 241.314 52.5 241.094 53.05C240.874 53.59 240.764 54.365 240.764 55.375C240.764 56.055 240.804 56.62 240.884 57.07C240.964 57.51 241.124 57.87 241.364 58.15C241.614 58.42 241.979 58.555 242.459 58.555C242.939 58.555 243.299 58.42 243.539 58.15C243.789 57.87 243.954 57.51 244.034 57.07C244.114 56.62 244.154 56.055 244.154 55.375ZM250.998 52.81C250.998 52 251.228 51.375 251.688 50.935C252.158 50.495 252.763 50.275 253.503 50.275C254.243 50.275 254.843 50.495 255.303 50.935C255.763 51.375 255.993 52 255.993 52.81C255.993 53.62 255.763 54.245 255.303 54.685C254.843 55.125 254.243 55.345 253.503 55.345C252.763 55.345 252.158 55.125 251.688 54.685C251.228 54.245 250.998 53.62 250.998 52.81ZM261.183 50.44L255.408 61H252.933L258.708 50.44H261.183ZM253.488 51.775C253.008 51.775 252.768 52.12 252.768 52.81C252.768 53.49 253.008 53.83 253.488 53.83C253.718 53.83 253.898 53.745 254.028 53.575C254.158 53.405 254.223 53.15 254.223 52.81C254.223 52.12 253.978 51.775 253.488 51.775ZM258.138 58.63C258.138 57.82 258.368 57.195 258.828 56.755C259.288 56.315 259.888 56.095 260.628 56.095C261.368 56.095 261.968 56.315 262.428 56.755C262.888 57.195 263.118 57.82 263.118 58.63C263.118 59.44 262.888 60.065 262.428 60.505C261.968 60.945 261.368 61.165 260.628 61.165C259.888 61.165 259.288 60.945 258.828 60.505C258.368 60.065 258.138 59.44 258.138 58.63ZM260.613 57.595C260.383 57.595 260.203 57.68 260.073 57.85C259.953 58.02 259.893 58.28 259.893 58.63C259.893 59.31 260.133 59.65 260.613 59.65C260.843 59.65 261.023 59.565 261.153 59.395C261.283 59.225 261.348 58.97 261.348 58.63C261.348 58.29 261.283 58.035 261.153 57.865C261.023 57.685 260.843 57.595 260.613 57.595Z" fill="black" fill-opacity="0.8"/>
<path d="M935.955 100.86C935.955 101.47 935.815 102.03 935.535 102.54C935.255 103.04 934.825 103.445 934.245 103.755C933.665 104.065 932.945 104.22 932.085 104.22H930.495V108H927.93V97.47H932.085C932.925 97.47 933.635 97.615 934.215 97.905C934.795 98.195 935.23 98.595 935.52 99.105C935.81 99.615 935.955 100.2 935.955 100.86ZM931.89 102.18C932.38 102.18 932.745 102.065 932.985 101.835C933.225 101.605 933.345 101.28 933.345 100.86C933.345 100.44 933.225 100.115 932.985 99.885C932.745 99.655 932.38 99.54 931.89 99.54H930.495V102.18H931.89ZM936.78 103.8C936.78 102.94 936.94 102.185 937.26 101.535C937.59 100.885 938.035 100.385 938.595 100.035C939.155 99.685 939.78 99.51 940.47 99.51C941.06 99.51 941.575 99.63 942.015 99.87C942.465 100.11 942.81 100.425 943.05 100.815V99.63H945.615V108H943.05V106.815C942.8 107.205 942.45 107.52 942 107.76C941.56 108 941.045 108.12 940.455 108.12C939.775 108.12 939.155 107.945 938.595 107.595C938.035 107.235 937.59 106.73 937.26 106.08C936.94 105.42 936.78 104.66 936.78 103.8ZM943.05 103.815C943.05 103.175 942.87 102.67 942.51 102.3C942.16 101.93 941.73 101.745 941.22 101.745C940.71 101.745 940.275 101.93 939.915 102.3C939.565 102.66 939.39 103.16 939.39 103.8C939.39 104.44 939.565 104.95 939.915 105.33C940.275 105.7 940.71 105.885 941.22 105.885C941.73 105.885 942.16 105.7 942.51 105.33C942.87 104.96 943.05 104.455 943.05 103.815ZM950.036 101.025C950.336 100.565 950.711 100.205 951.161 99.945C951.611 99.675 952.111 99.54 952.661 99.54V102.255H951.956C951.316 102.255 950.836 102.395 950.516 102.675C950.196 102.945 950.036 103.425 950.036 104.115V108H947.471V99.63H950.036V101.025ZM958.552 105.825V108H957.247C956.317 108 955.592 107.775 955.072 107.325C954.552 106.865 954.292 106.12 954.292 105.09V101.76H953.272V99.63H954.292V97.59H956.857V99.63H958.537V101.76H956.857V105.12C956.857 105.37 956.917 105.55 957.037 105.66C957.157 105.77 957.357 105.825 957.637 105.825H958.552ZM965.081 99.54C966.061 99.54 966.841 99.86 967.421 100.5C968.011 101.13 968.306 102 968.306 103.11V108H965.756V103.455C965.756 102.895 965.611 102.46 965.321 102.15C965.031 101.84 964.641 101.685 964.151 101.685C963.661 101.685 963.271 101.84 962.981 102.15C962.691 102.46 962.546 102.895 962.546 103.455V108H959.981V99.63H962.546V100.74C962.806 100.37 963.156 100.08 963.596 99.87C964.036 99.65 964.531 99.54 965.081 99.54ZM977.978 103.68C977.978 103.92 977.963 104.17 977.933 104.43H972.128C972.168 104.95 972.333 105.35 972.623 105.63C972.923 105.9 973.288 106.035 973.718 106.035C974.358 106.035 974.803 105.765 975.053 105.225H977.783C977.643 105.775 977.388 106.27 977.018 106.71C976.658 107.15 976.203 107.495 975.653 107.745C975.103 107.995 974.488 108.12 973.808 108.12C972.988 108.12 972.258 107.945 971.618 107.595C970.978 107.245 970.478 106.745 970.118 106.095C969.758 105.445 969.578 104.685 969.578 103.815C969.578 102.945 969.753 102.185 970.103 101.535C970.463 100.885 970.963 100.385 971.603 100.035C972.243 99.685 972.978 99.51 973.808 99.51C974.618 99.51 975.338 99.68 975.968 100.02C976.598 100.36 977.088 100.845 977.438 101.475C977.798 102.105 977.978 102.84 977.978 103.68ZM975.353 103.005C975.353 102.565 975.203 102.215 974.903 101.955C974.603 101.695 974.228 101.565 973.778 101.565C973.348 101.565 972.983 101.69 972.683 101.94C972.393 102.19 972.213 102.545 972.143 103.005H975.353ZM981.896 101.025C982.196 100.565 982.571 100.205 983.021 99.945C983.471 99.675 983.971 99.54 984.521 99.54V102.255H983.816C983.176 102.255 982.696 102.395 982.376 102.675C982.056 102.945 981.896 103.425 981.896 104.115V108H979.331V99.63H981.896V101.025Z" fill="black"/>
<path d="M594.09 53.005C594.01 52.635 593.87 52.36 593.67 52.18C593.47 51.99 593.185 51.895 592.815 51.895C592.245 51.895 591.835 52.145 591.585 52.645C591.335 53.135 591.205 53.915 591.195 54.985C591.415 54.635 591.73 54.36 592.14 54.16C592.56 53.96 593.02 53.86 593.52 53.86C594.5 53.86 595.285 54.17 595.875 54.79C596.475 55.41 596.775 56.275 596.775 57.385C596.775 58.115 596.625 58.755 596.325 59.305C596.035 59.855 595.605 60.285 595.035 60.595C594.475 60.905 593.81 61.06 593.04 61.06C591.5 61.06 590.43 60.58 589.83 59.62C589.23 58.65 588.93 57.26 588.93 55.45C588.93 53.55 589.245 52.14 589.875 51.22C590.515 50.29 591.535 49.825 592.935 49.825C593.685 49.825 594.315 49.975 594.825 50.275C595.345 50.565 595.735 50.95 595.995 51.43C596.265 51.91 596.425 52.435 596.475 53.005H594.09ZM592.905 55.885C592.475 55.885 592.115 56.015 591.825 56.275C591.545 56.525 591.405 56.885 591.405 57.355C591.405 57.835 591.535 58.21 591.795 58.48C592.065 58.75 592.445 58.885 592.935 58.885C593.375 58.885 593.72 58.755 593.97 58.495C594.23 58.225 594.36 57.86 594.36 57.4C594.36 56.93 594.235 56.56 593.985 56.29C593.735 56.02 593.375 55.885 592.905 55.885ZM598.226 55.375C598.226 53.655 598.556 52.3 599.216 51.31C599.886 50.32 600.961 49.825 602.441 49.825C603.921 49.825 604.991 50.32 605.651 51.31C606.321 52.3 606.656 53.655 606.656 55.375C606.656 57.115 606.321 58.48 605.651 59.47C604.991 60.46 603.921 60.955 602.441 60.955C600.961 60.955 599.886 60.46 599.216 59.47C598.556 58.48 598.226 57.115 598.226 55.375ZM604.136 55.375C604.136 54.365 604.026 53.59 603.806 53.05C603.586 52.5 603.131 52.225 602.441 52.225C601.751 52.225 601.296 52.5 601.076 53.05C600.856 53.59 600.746 54.365 600.746 55.375C600.746 56.055 600.786 56.62 600.866 57.07C600.946 57.51 601.106 57.87 601.346 58.15C601.596 58.42 601.961 58.555 602.441 58.555C602.921 58.555 603.281 58.42 603.521 58.15C603.771 57.87 603.936 57.51 604.016 57.07C604.096 56.62 604.136 56.055 604.136 55.375ZM610.98 52.81C610.98 52 611.21 51.375 611.67 50.935C612.14 50.495 612.745 50.275 613.485 50.275C614.225 50.275 614.825 50.495 615.285 50.935C615.745 51.375 615.975 52 615.975 52.81C615.975 53.62 615.745 54.245 615.285 54.685C614.825 55.125 614.225 55.345 613.485 55.345C612.745 55.345 612.14 55.125 611.67 54.685C611.21 54.245 610.98 53.62 610.98 52.81ZM621.165 50.44L615.39 61H612.915L618.69 50.44H621.165ZM613.47 51.775C612.99 51.775 612.75 52.12 612.75 52.81C612.75 53.49 612.99 53.83 613.47 53.83C613.7 53.83 613.88 53.745 614.01 53.575C614.14 53.405 614.205 53.15 614.205 52.81C614.205 52.12 613.96 51.775 613.47 51.775ZM618.12 58.63C618.12 57.82 618.35 57.195 618.81 56.755C619.27 56.315 619.87 56.095 620.61 56.095C621.35 56.095 621.95 56.315 622.41 56.755C622.87 57.195 623.1 57.82 623.1 58.63C623.1 59.44 622.87 60.065 622.41 60.505C621.95 60.945 621.35 61.165 620.61 61.165C619.87 61.165 619.27 60.945 618.81 60.505C618.35 60.065 618.12 59.44 618.12 58.63ZM620.595 57.595C620.365 57.595 620.185 57.68 620.055 57.85C619.935 58.02 619.875 58.28 619.875 58.63C619.875 59.31 620.115 59.65 620.595 59.65C620.825 59.65 621.005 59.565 621.135 59.395C621.265 59.225 621.33 58.97 621.33 58.63C621.33 58.29 621.265 58.035 621.135 57.865C621.005 57.685 620.825 57.595 620.595 57.595Z" fill="white"/>
<path d="M598.855 97.47V108H596.29V101.685L593.935 108H591.865L589.495 101.67V108H586.93V97.47H589.96L592.915 104.76L595.84 97.47H598.855ZM601.99 98.76C601.54 98.76 601.17 98.63 600.88 98.37C600.6 98.1 600.46 97.77 600.46 97.38C600.46 96.98 600.6 96.65 600.88 96.39C601.17 96.12 601.54 95.985 601.99 95.985C602.43 95.985 602.79 96.12 603.07 96.39C603.36 96.65 603.505 96.98 603.505 97.38C603.505 97.77 603.36 98.1 603.07 98.37C602.79 98.63 602.43 98.76 601.99 98.76ZM603.265 99.63V108H600.7V99.63H603.265ZM609.788 105.825V108H608.483C607.553 108 606.828 107.775 606.308 107.325C605.788 106.865 605.528 106.12 605.528 105.09V101.76H604.508V99.63H605.528V97.59H608.093V99.63H609.773V101.76H608.093V105.12C608.093 105.37 608.153 105.55 608.273 105.66C608.393 105.77 608.593 105.825 608.873 105.825H609.788ZM613.782 101.025C614.082 100.565 614.457 100.205 614.907 99.945C615.357 99.675 615.857 99.54 616.407 99.54V102.255H615.702C615.062 102.255 614.582 102.395 614.262 102.675C613.942 102.945 613.782 103.425 613.782 104.115V108H611.217V99.63H613.782V101.025ZM617.123 103.8C617.123 102.94 617.283 102.185 617.603 101.535C617.933 100.885 618.378 100.385 618.938 100.035C619.498 99.685 620.123 99.51 620.813 99.51C621.403 99.51 621.918 99.63 622.358 99.87C622.808 100.11 623.153 100.425 623.393 100.815V99.63H625.958V108H623.393V106.815C623.143 107.205 622.793 107.52 622.343 107.76C621.903 108 621.388 108.12 620.798 108.12C620.118 108.12 619.498 107.945 618.938 107.595C618.378 107.235 617.933 106.73 617.603 106.08C617.283 105.42 617.123 104.66 617.123 103.8ZM623.393 103.815C623.393 103.175 623.213 102.67 622.853 102.3C622.503 101.93 622.073 101.745 621.563 101.745C621.053 101.745 620.618 101.93 620.258 102.3C619.908 102.66 619.733 103.16 619.733 103.8C619.733 104.44 619.908 104.95 620.258 105.33C620.618 105.7 621.053 105.885 621.563 105.885C622.073 105.885 622.503 105.7 622.853 105.33C623.213 104.96 623.393 104.455 623.393 103.815Z" fill="black"/>
<rect x="163" y="153" width="735.005" height="51" rx="1" fill="#EDF1F5"/>
<rect x="292" y="153" width="606" height="51" rx="25.5" fill="#007370"/>
<rect x="818" y="153" width="240" height="51" rx="25.5" fill="#FFDE59"/>
<path d="M167.74 140.105C166.97 140.105 166.28 139.98 165.67 139.73C165.06 139.48 164.57 139.11 164.2 138.62C163.84 138.13 163.65 137.54 163.63 136.85H166.36C166.4 137.24 166.535 137.54 166.765 137.75C166.995 137.95 167.295 138.05 167.665 138.05C168.045 138.05 168.345 137.965 168.565 137.795C168.785 137.615 168.895 137.37 168.895 137.06C168.895 136.8 168.805 136.585 168.625 136.415C168.455 136.245 168.24 136.105 167.98 135.995C167.73 135.885 167.37 135.76 166.9 135.62C166.22 135.41 165.665 135.2 165.235 134.99C164.805 134.78 164.435 134.47 164.125 134.06C163.815 133.65 163.66 133.115 163.66 132.455C163.66 131.475 164.015 130.71 164.725 130.16C165.435 129.6 166.36 129.32 167.5 129.32C168.66 129.32 169.595 129.6 170.305 130.16C171.015 130.71 171.395 131.48 171.445 132.47H168.67C168.65 132.13 168.525 131.865 168.295 131.675C168.065 131.475 167.77 131.375 167.41 131.375C167.1 131.375 166.85 131.46 166.66 131.63C166.47 131.79 166.375 132.025 166.375 132.335C166.375 132.675 166.535 132.94 166.855 133.13C167.175 133.32 167.675 133.525 168.355 133.745C169.035 133.975 169.585 134.195 170.005 134.405C170.435 134.615 170.805 134.92 171.115 135.32C171.425 135.72 171.58 136.235 171.58 136.865C171.58 137.465 171.425 138.01 171.115 138.5C170.815 138.99 170.375 139.38 169.795 139.67C169.215 139.96 168.53 140.105 167.74 140.105ZM183.839 131.54C184.879 131.54 185.704 131.855 186.314 132.485C186.934 133.115 187.244 133.99 187.244 135.11V140H184.694V135.455C184.694 134.915 184.549 134.5 184.259 134.21C183.979 133.91 183.589 133.76 183.089 133.76C182.589 133.76 182.194 133.91 181.904 134.21C181.624 134.5 181.484 134.915 181.484 135.455V140H178.934V135.455C178.934 134.915 178.789 134.5 178.499 134.21C178.219 133.91 177.829 133.76 177.329 133.76C176.829 133.76 176.434 133.91 176.144 134.21C175.864 134.5 175.724 134.915 175.724 135.455V140H173.159V131.63H175.724V132.68C175.984 132.33 176.324 132.055 176.744 131.855C177.164 131.645 177.639 131.54 178.169 131.54C178.799 131.54 179.359 131.675 179.849 131.945C180.349 132.215 180.739 132.6 181.019 133.1C181.309 132.64 181.704 132.265 182.204 131.975C182.704 131.685 183.249 131.54 183.839 131.54ZM188.527 135.8C188.527 134.94 188.687 134.185 189.007 133.535C189.337 132.885 189.782 132.385 190.342 132.035C190.902 131.685 191.527 131.51 192.217 131.51C192.807 131.51 193.322 131.63 193.762 131.87C194.212 132.11 194.557 132.425 194.797 132.815V131.63H197.362V140H194.797V138.815C194.547 139.205 194.197 139.52 193.747 139.76C193.307 140 192.792 140.12 192.202 140.12C191.522 140.12 190.902 139.945 190.342 139.595C189.782 139.235 189.337 138.73 189.007 138.08C188.687 137.42 188.527 136.66 188.527 135.8ZM194.797 135.815C194.797 135.175 194.617 134.67 194.257 134.3C193.907 133.93 193.477 133.745 192.967 133.745C192.457 133.745 192.022 133.93 191.662 134.3C191.312 134.66 191.137 135.16 191.137 135.8C191.137 136.44 191.312 136.95 191.662 137.33C192.022 137.7 192.457 137.885 192.967 137.885C193.477 137.885 193.907 137.7 194.257 137.33C194.617 136.96 194.797 136.455 194.797 135.815ZM201.783 133.025C202.083 132.565 202.458 132.205 202.908 131.945C203.358 131.675 203.858 131.54 204.408 131.54V134.255H203.703C203.063 134.255 202.583 134.395 202.263 134.675C201.943 134.945 201.783 135.425 201.783 136.115V140H199.218V131.63H201.783V133.025ZM210.299 137.825V140H208.994C208.064 140 207.339 139.775 206.819 139.325C206.299 138.865 206.039 138.12 206.039 137.09V133.76H205.019V131.63H206.039V129.59H208.604V131.63H210.284V133.76H208.604V137.12C208.604 137.37 208.664 137.55 208.784 137.66C208.904 137.77 209.104 137.825 209.384 137.825H210.299ZM213.018 130.76C212.568 130.76 212.198 130.63 211.908 130.37C211.628 130.1 211.488 129.77 211.488 129.38C211.488 128.98 211.628 128.65 211.908 128.39C212.198 128.12 212.568 127.985 213.018 127.985C213.458 127.985 213.818 128.12 214.098 128.39C214.388 128.65 214.533 128.98 214.533 129.38C214.533 129.77 214.388 130.1 214.098 130.37C213.818 130.63 213.458 130.76 213.018 130.76ZM214.293 131.63V140H211.728V131.63H214.293ZM221.252 131.54C222.232 131.54 223.012 131.86 223.592 132.5C224.182 133.13 224.477 134 224.477 135.11V140H221.927V135.455C221.927 134.895 221.782 134.46 221.492 134.15C221.202 133.84 220.812 133.685 220.322 133.685C219.832 133.685 219.442 133.84 219.152 134.15C218.862 134.46 218.717 134.895 218.717 135.455V140H216.152V131.63H218.717V132.74C218.977 132.37 219.327 132.08 219.767 131.87C220.207 131.65 220.702 131.54 221.252 131.54ZM225.749 135.815C225.749 134.945 225.924 134.185 226.274 133.535C226.634 132.885 227.129 132.385 227.759 132.035C228.399 131.685 229.129 131.51 229.949 131.51C230.999 131.51 231.874 131.785 232.574 132.335C233.284 132.885 233.749 133.66 233.969 134.66H231.239C231.009 134.02 230.564 133.7 229.904 133.7C229.434 133.7 229.059 133.885 228.779 134.255C228.499 134.615 228.359 135.135 228.359 135.815C228.359 136.495 228.499 137.02 228.779 137.39C229.059 137.75 229.434 137.93 229.904 137.93C230.564 137.93 231.009 137.61 231.239 136.97H233.969C233.749 137.95 233.284 138.72 232.574 139.28C231.864 139.84 230.989 140.12 229.949 140.12C229.129 140.12 228.399 139.945 227.759 139.595C227.129 139.245 226.634 138.745 226.274 138.095C225.924 137.445 225.749 136.685 225.749 135.815ZM239.151 140.12C238.331 140.12 237.591 139.945 236.931 139.595C236.281 139.245 235.766 138.745 235.386 138.095C235.016 137.445 234.831 136.685 234.831 135.815C234.831 134.955 235.021 134.2 235.401 133.55C235.781 132.89 236.301 132.385 236.961 132.035C237.621 131.685 238.361 131.51 239.181 131.51C240.001 131.51 240.741 131.685 241.401 132.035C242.061 132.385 242.581 132.89 242.961 133.55C243.341 134.2 243.531 134.955 243.531 135.815C243.531 136.675 243.336 137.435 242.946 138.095C242.566 138.745 242.041 139.245 241.371 139.595C240.711 139.945 239.971 140.12 239.151 140.12ZM239.151 137.9C239.641 137.9 240.056 137.72 240.396 137.36C240.746 137 240.921 136.485 240.921 135.815C240.921 135.145 240.751 134.63 240.411 134.27C240.081 133.91 239.671 133.73 239.181 133.73C238.681 133.73 238.266 133.91 237.936 134.27C237.606 134.62 237.441 135.135 237.441 135.815C237.441 136.485 237.601 137 237.921 137.36C238.251 137.72 238.661 137.9 239.151 137.9ZM255.572 131.54C256.612 131.54 257.437 131.855 258.047 132.485C258.667 133.115 258.977 133.99 258.977 135.11V140H256.427V135.455C256.427 134.915 256.282 134.5 255.992 134.21C255.712 133.91 255.322 133.76 254.822 133.76C254.322 133.76 253.927 133.91 253.637 134.21C253.357 134.5 253.217 134.915 253.217 135.455V140H250.667V135.455C250.667 134.915 250.522 134.5 250.232 134.21C249.952 133.91 249.562 133.76 249.062 133.76C248.562 133.76 248.167 133.91 247.877 134.21C247.597 134.5 247.457 134.915 247.457 135.455V140H244.892V131.63H247.457V132.68C247.717 132.33 248.057 132.055 248.477 131.855C248.897 131.645 249.372 131.54 249.902 131.54C250.532 131.54 251.092 131.675 251.582 131.945C252.082 132.215 252.472 132.6 252.752 133.1C253.042 132.64 253.437 132.265 253.937 131.975C254.437 131.685 254.982 131.54 255.572 131.54ZM268.661 135.68C268.661 135.92 268.646 136.17 268.616 136.43H262.811C262.851 136.95 263.016 137.35 263.306 137.63C263.606 137.9 263.971 138.035 264.401 138.035C265.041 138.035 265.486 137.765 265.736 137.225H268.466C268.326 137.775 268.071 138.27 267.701 138.71C267.341 139.15 266.886 139.495 266.336 139.745C265.786 139.995 265.171 140.12 264.491 140.12C263.671 140.12 262.941 139.945 262.301 139.595C261.661 139.245 261.161 138.745 260.801 138.095C260.441 137.445 260.261 136.685 260.261 135.815C260.261 134.945 260.436 134.185 260.786 133.535C261.146 132.885 261.646 132.385 262.286 132.035C262.926 131.685 263.661 131.51 264.491 131.51C265.301 131.51 266.021 131.68 266.651 132.02C267.281 132.36 267.771 132.845 268.121 133.475C268.481 134.105 268.661 134.84 268.661 135.68ZM266.036 135.005C266.036 134.565 265.886 134.215 265.586 133.955C265.286 133.695 264.911 133.565 264.461 133.565C264.031 133.565 263.666 133.69 263.366 133.94C263.076 134.19 262.896 134.545 262.826 135.005H266.036Z" fill="black" fill-opacity="0.8"/>
<path d="M939.765 176.14C939.805 175.07 940.155 174.245 940.815 173.665C941.475 173.085 942.37 172.795 943.5 172.795C944.25 172.795 944.89 172.925 945.42 173.185C945.96 173.445 946.365 173.8 946.635 174.25C946.915 174.7 947.055 175.205 947.055 175.765C947.055 176.425 946.89 176.965 946.56 177.385C946.23 177.795 945.845 178.075 945.405 178.225V178.285C945.975 178.475 946.425 178.79 946.755 179.23C947.085 179.67 947.25 180.235 947.25 180.925C947.25 181.545 947.105 182.095 946.815 182.575C946.535 183.045 946.12 183.415 945.57 183.685C945.03 183.955 944.385 184.09 943.635 184.09C942.435 184.09 941.475 183.795 940.755 183.205C940.045 182.615 939.67 181.725 939.63 180.535H942.12C942.13 180.975 942.255 181.325 942.495 181.585C942.735 181.835 943.085 181.96 943.545 181.96C943.935 181.96 944.235 181.85 944.445 181.63C944.665 181.4 944.775 181.1 944.775 180.73C944.775 180.25 944.62 179.905 944.31 179.695C944.01 179.475 943.525 179.365 942.855 179.365H942.375V177.28H942.855C943.365 177.28 943.775 177.195 944.085 177.025C944.405 176.845 944.565 176.53 944.565 176.08C944.565 175.72 944.465 175.44 944.265 175.24C944.065 175.04 943.79 174.94 943.44 174.94C943.06 174.94 942.775 175.055 942.585 175.285C942.405 175.515 942.3 175.8 942.27 176.14H939.765ZM948.757 178.375C948.757 176.655 949.087 175.3 949.747 174.31C950.417 173.32 951.492 172.825 952.972 172.825C954.452 172.825 955.522 173.32 956.182 174.31C956.852 175.3 957.187 176.655 957.187 178.375C957.187 180.115 956.852 181.48 956.182 182.47C955.522 183.46 954.452 183.955 952.972 183.955C951.492 183.955 950.417 183.46 949.747 182.47C949.087 181.48 948.757 180.115 948.757 178.375ZM954.667 178.375C954.667 177.365 954.557 176.59 954.337 176.05C954.117 175.5 953.662 175.225 952.972 175.225C952.282 175.225 951.827 175.5 951.607 176.05C951.387 176.59 951.277 177.365 951.277 178.375C951.277 179.055 951.317 179.62 951.397 180.07C951.477 180.51 951.637 180.87 951.877 181.15C952.127 181.42 952.492 181.555 952.972 181.555C953.452 181.555 953.812 181.42 954.052 181.15C954.302 180.87 954.467 180.51 954.547 180.07C954.627 179.62 954.667 179.055 954.667 178.375ZM961.511 175.81C961.511 175 961.741 174.375 962.201 173.935C962.671 173.495 963.276 173.275 964.016 173.275C964.756 173.275 965.356 173.495 965.816 173.935C966.276 174.375 966.506 175 966.506 175.81C966.506 176.62 966.276 177.245 965.816 177.685C965.356 178.125 964.756 178.345 964.016 178.345C963.276 178.345 962.671 178.125 962.201 177.685C961.741 177.245 961.511 176.62 961.511 175.81ZM971.696 173.44L965.921 184H963.446L969.221 173.44H971.696ZM964.001 174.775C963.521 174.775 963.281 175.12 963.281 175.81C963.281 176.49 963.521 176.83 964.001 176.83C964.231 176.83 964.411 176.745 964.541 176.575C964.671 176.405 964.736 176.15 964.736 175.81C964.736 175.12 964.491 174.775 964.001 174.775ZM968.651 181.63C968.651 180.82 968.881 180.195 969.341 179.755C969.801 179.315 970.401 179.095 971.141 179.095C971.881 179.095 972.481 179.315 972.941 179.755C973.401 180.195 973.631 180.82 973.631 181.63C973.631 182.44 973.401 183.065 972.941 183.505C972.481 183.945 971.881 184.165 971.141 184.165C970.401 184.165 969.801 183.945 969.341 183.505C968.881 183.065 968.651 182.44 968.651 181.63ZM971.126 180.595C970.896 180.595 970.716 180.68 970.586 180.85C970.466 181.02 970.406 181.28 970.406 181.63C970.406 182.31 970.646 182.65 971.126 182.65C971.356 182.65 971.536 182.565 971.666 182.395C971.796 182.225 971.861 181.97 971.861 181.63C971.861 181.29 971.796 181.035 971.666 180.865C971.536 180.685 971.356 180.595 971.126 180.595Z" fill="black" fill-opacity="0.8"/>
<path d="M229.405 175.435V173.05H233.56V184H230.89V175.435H229.405ZM235.315 178.375C235.315 176.655 235.645 175.3 236.305 174.31C236.975 173.32 238.05 172.825 239.53 172.825C241.01 172.825 242.08 173.32 242.74 174.31C243.41 175.3 243.745 176.655 243.745 178.375C243.745 180.115 243.41 181.48 242.74 182.47C242.08 183.46 241.01 183.955 239.53 183.955C238.05 183.955 236.975 183.46 236.305 182.47C235.645 181.48 235.315 180.115 235.315 178.375ZM241.225 178.375C241.225 177.365 241.115 176.59 240.895 176.05C240.675 175.5 240.22 175.225 239.53 175.225C238.84 175.225 238.385 175.5 238.165 176.05C237.945 176.59 237.835 177.365 237.835 178.375C237.835 179.055 237.875 179.62 237.955 180.07C238.035 180.51 238.195 180.87 238.435 181.15C238.685 181.42 239.05 181.555 239.53 181.555C240.01 181.555 240.37 181.42 240.61 181.15C240.86 180.87 241.025 180.51 241.105 180.07C241.185 179.62 241.225 179.055 241.225 178.375ZM248.069 175.81C248.069 175 248.299 174.375 248.759 173.935C249.229 173.495 249.834 173.275 250.574 173.275C251.314 173.275 251.914 173.495 252.374 173.935C252.834 174.375 253.064 175 253.064 175.81C253.064 176.62 252.834 177.245 252.374 177.685C251.914 178.125 251.314 178.345 250.574 178.345C249.834 178.345 249.229 178.125 248.759 177.685C248.299 177.245 248.069 176.62 248.069 175.81ZM258.254 173.44L252.479 184H250.004L255.779 173.44H258.254ZM250.559 174.775C250.079 174.775 249.839 175.12 249.839 175.81C249.839 176.49 250.079 176.83 250.559 176.83C250.789 176.83 250.969 176.745 251.099 176.575C251.229 176.405 251.294 176.15 251.294 175.81C251.294 175.12 251.049 174.775 250.559 174.775ZM255.209 181.63C255.209 180.82 255.439 180.195 255.899 179.755C256.359 179.315 256.959 179.095 257.699 179.095C258.439 179.095 259.039 179.315 259.499 179.755C259.959 180.195 260.189 180.82 260.189 181.63C260.189 182.44 259.959 183.065 259.499 183.505C259.039 183.945 258.439 184.165 257.699 184.165C256.959 184.165 256.359 183.945 255.899 183.505C255.439 183.065 255.209 182.44 255.209 181.63ZM257.684 180.595C257.454 180.595 257.274 180.68 257.144 180.85C257.024 181.02 256.964 181.28 256.964 181.63C256.964 182.31 257.204 182.65 257.684 182.65C257.914 182.65 258.094 182.565 258.224 182.395C258.354 182.225 258.419 181.97 258.419 181.63C258.419 181.29 258.354 181.035 258.224 180.865C258.094 180.685 257.914 180.595 257.684 180.595Z" fill="black" fill-opacity="0.8"/>
<path d="M935.955 223.86C935.955 224.47 935.815 225.03 935.535 225.54C935.255 226.04 934.825 226.445 934.245 226.755C933.665 227.065 932.945 227.22 932.085 227.22H930.495V231H927.93V220.47H932.085C932.925 220.47 933.635 220.615 934.215 220.905C934.795 221.195 935.23 221.595 935.52 222.105C935.81 222.615 935.955 223.2 935.955 223.86ZM931.89 225.18C932.38 225.18 932.745 225.065 932.985 224.835C933.225 224.605 933.345 224.28 933.345 223.86C933.345 223.44 933.225 223.115 932.985 222.885C932.745 222.655 932.38 222.54 931.89 222.54H930.495V225.18H931.89ZM936.78 226.8C936.78 225.94 936.94 225.185 937.26 224.535C937.59 223.885 938.035 223.385 938.595 223.035C939.155 222.685 939.78 222.51 940.47 222.51C941.06 222.51 941.575 222.63 942.015 222.87C942.465 223.11 942.81 223.425 943.05 223.815V222.63H945.615V231H943.05V229.815C942.8 230.205 942.45 230.52 942 230.76C941.56 231 941.045 231.12 940.455 231.12C939.775 231.12 939.155 230.945 938.595 230.595C938.035 230.235 937.59 229.73 937.26 229.08C936.94 228.42 936.78 227.66 936.78 226.8ZM943.05 226.815C943.05 226.175 942.87 225.67 942.51 225.3C942.16 224.93 941.73 224.745 941.22 224.745C940.71 224.745 940.275 224.93 939.915 225.3C939.565 225.66 939.39 226.16 939.39 226.8C939.39 227.44 939.565 227.95 939.915 228.33C940.275 228.7 940.71 228.885 941.22 228.885C941.73 228.885 942.16 228.7 942.51 228.33C942.87 227.96 943.05 227.455 943.05 226.815ZM950.036 224.025C950.336 223.565 950.711 223.205 951.161 222.945C951.611 222.675 952.111 222.54 952.661 222.54V225.255H951.956C951.316 225.255 950.836 225.395 950.516 225.675C950.196 225.945 950.036 226.425 950.036 227.115V231H947.471V222.63H950.036V224.025ZM958.552 228.825V231H957.247C956.317 231 955.592 230.775 955.072 230.325C954.552 229.865 954.292 229.12 954.292 228.09V224.76H953.272V222.63H954.292V220.59H956.857V222.63H958.537V224.76H956.857V228.12C956.857 228.37 956.917 228.55 957.037 228.66C957.157 228.77 957.357 228.825 957.637 228.825H958.552ZM965.081 222.54C966.061 222.54 966.841 222.86 967.421 223.5C968.011 224.13 968.306 225 968.306 226.11V231H965.756V226.455C965.756 225.895 965.611 225.46 965.321 225.15C965.031 224.84 964.641 224.685 964.151 224.685C963.661 224.685 963.271 224.84 962.981 225.15C962.691 225.46 962.546 225.895 962.546 226.455V231H959.981V222.63H962.546V223.74C962.806 223.37 963.156 223.08 963.596 222.87C964.036 222.65 964.531 222.54 965.081 222.54ZM977.978 226.68C977.978 226.92 977.963 227.17 977.933 227.43H972.128C972.168 227.95 972.333 228.35 972.623 228.63C972.923 228.9 973.288 229.035 973.718 229.035C974.358 229.035 974.803 228.765 975.053 228.225H977.783C977.643 228.775 977.388 229.27 977.018 229.71C976.658 230.15 976.203 230.495 975.653 230.745C975.103 230.995 974.488 231.12 973.808 231.12C972.988 231.12 972.258 230.945 971.618 230.595C970.978 230.245 970.478 229.745 970.118 229.095C969.758 228.445 969.578 227.685 969.578 226.815C969.578 225.945 969.753 225.185 970.103 224.535C970.463 223.885 970.963 223.385 971.603 223.035C972.243 222.685 972.978 222.51 973.808 222.51C974.618 222.51 975.338 222.68 975.968 223.02C976.598 223.36 977.088 223.845 977.438 224.475C977.798 225.105 977.978 225.84 977.978 226.68ZM975.353 226.005C975.353 225.565 975.203 225.215 974.903 224.955C974.603 224.695 974.228 224.565 973.778 224.565C973.348 224.565 972.983 224.69 972.683 224.94C972.393 225.19 972.213 225.545 972.143 226.005H975.353ZM981.896 224.025C982.196 223.565 982.571 223.205 983.021 222.945C983.471 222.675 983.971 222.54 984.521 222.54V225.255H983.816C983.176 225.255 982.696 225.395 982.376 225.675C982.056 225.945 981.896 226.425 981.896 227.115V231H979.331V222.63H981.896V224.025Z" fill="black"/>
<path d="M594.09 176.005C594.01 175.635 593.87 175.36 593.67 175.18C593.47 174.99 593.185 174.895 592.815 174.895C592.245 174.895 591.835 175.145 591.585 175.645C591.335 176.135 591.205 176.915 591.195 177.985C591.415 177.635 591.73 177.36 592.14 177.16C592.56 176.96 593.02 176.86 593.52 176.86C594.5 176.86 595.285 177.17 595.875 177.79C596.475 178.41 596.775 179.275 596.775 180.385C596.775 181.115 596.625 181.755 596.325 182.305C596.035 182.855 595.605 183.285 595.035 183.595C594.475 183.905 593.81 184.06 593.04 184.06C591.5 184.06 590.43 183.58 589.83 182.62C589.23 181.65 588.93 180.26 588.93 178.45C588.93 176.55 589.245 175.14 589.875 174.22C590.515 173.29 591.535 172.825 592.935 172.825C593.685 172.825 594.315 172.975 594.825 173.275C595.345 173.565 595.735 173.95 595.995 174.43C596.265 174.91 596.425 175.435 596.475 176.005H594.09ZM592.905 178.885C592.475 178.885 592.115 179.015 591.825 179.275C591.545 179.525 591.405 179.885 591.405 180.355C591.405 180.835 591.535 181.21 591.795 181.48C592.065 181.75 592.445 181.885 592.935 181.885C593.375 181.885 593.72 181.755 593.97 181.495C594.23 181.225 594.36 180.86 594.36 180.4C594.36 179.93 594.235 179.56 593.985 179.29C593.735 179.02 593.375 178.885 592.905 178.885ZM598.226 178.375C598.226 176.655 598.556 175.3 599.216 174.31C599.886 173.32 600.961 172.825 602.441 172.825C603.921 172.825 604.991 173.32 605.651 174.31C606.321 175.3 606.656 176.655 606.656 178.375C606.656 180.115 606.321 181.48 605.651 182.47C604.991 183.46 603.921 183.955 602.441 183.955C600.961 183.955 599.886 183.46 599.216 182.47C598.556 181.48 598.226 180.115 598.226 178.375ZM604.136 178.375C604.136 177.365 604.026 176.59 603.806 176.05C603.586 175.5 603.131 175.225 602.441 175.225C601.751 175.225 601.296 175.5 601.076 176.05C600.856 176.59 600.746 177.365 600.746 178.375C600.746 179.055 600.786 179.62 600.866 180.07C600.946 180.51 601.106 180.87 601.346 181.15C601.596 181.42 601.961 181.555 602.441 181.555C602.921 181.555 603.281 181.42 603.521 181.15C603.771 180.87 603.936 180.51 604.016 180.07C604.096 179.62 604.136 179.055 604.136 178.375ZM610.98 175.81C610.98 175 611.21 174.375 611.67 173.935C612.14 173.495 612.745 173.275 613.485 173.275C614.225 173.275 614.825 173.495 615.285 173.935C615.745 174.375 615.975 175 615.975 175.81C615.975 176.62 615.745 177.245 615.285 177.685C614.825 178.125 614.225 178.345 613.485 178.345C612.745 178.345 612.14 178.125 611.67 177.685C611.21 177.245 610.98 176.62 610.98 175.81ZM621.165 173.44L615.39 184H612.915L618.69 173.44H621.165ZM613.47 174.775C612.99 174.775 612.75 175.12 612.75 175.81C612.75 176.49 612.99 176.83 613.47 176.83C613.7 176.83 613.88 176.745 614.01 176.575C614.14 176.405 614.205 176.15 614.205 175.81C614.205 175.12 613.96 174.775 613.47 174.775ZM618.12 181.63C618.12 180.82 618.35 180.195 618.81 179.755C619.27 179.315 619.87 179.095 620.61 179.095C621.35 179.095 621.95 179.315 622.41 179.755C622.87 180.195 623.1 180.82 623.1 181.63C623.1 182.44 622.87 183.065 622.41 183.505C621.95 183.945 621.35 184.165 620.61 184.165C619.87 184.165 619.27 183.945 618.81 183.505C618.35 183.065 618.12 182.44 618.12 181.63ZM620.595 180.595C620.365 180.595 620.185 180.68 620.055 180.85C619.935 181.02 619.875 181.28 619.875 181.63C619.875 182.31 620.115 182.65 620.595 182.65C620.825 182.65 621.005 182.565 621.135 182.395C621.265 182.225 621.33 181.97 621.33 181.63C621.33 181.29 621.265 181.035 621.135 180.865C621.005 180.685 620.825 180.595 620.595 180.595Z" fill="white"/>
<path d="M598.855 220.47V231H596.29V224.685L593.935 231H591.865L589.495 224.67V231H586.93V220.47H589.96L592.915 227.76L595.84 220.47H598.855ZM601.99 221.76C601.54 221.76 601.17 221.63 600.88 221.37C600.6 221.1 600.46 220.77 600.46 220.38C600.46 219.98 600.6 219.65 600.88 219.39C601.17 219.12 601.54 218.985 601.99 218.985C602.43 218.985 602.79 219.12 603.07 219.39C603.36 219.65 603.505 219.98 603.505 220.38C603.505 220.77 603.36 221.1 603.07 221.37C602.79 221.63 602.43 221.76 601.99 221.76ZM603.265 222.63V231H600.7V222.63H603.265ZM609.788 228.825V231H608.483C607.553 231 606.828 230.775 606.308 230.325C605.788 229.865 605.528 229.12 605.528 228.09V224.76H604.508V222.63H605.528V220.59H608.093V222.63H609.773V224.76H608.093V228.12C608.093 228.37 608.153 228.55 608.273 228.66C608.393 228.77 608.593 228.825 608.873 228.825H609.788ZM613.782 224.025C614.082 223.565 614.457 223.205 614.907 222.945C615.357 222.675 615.857 222.54 616.407 222.54V225.255H615.702C615.062 225.255 614.582 225.395 614.262 225.675C613.942 225.945 613.782 226.425 613.782 227.115V231H611.217V222.63H613.782V224.025ZM617.123 226.8C617.123 225.94 617.283 225.185 617.603 224.535C617.933 223.885 618.378 223.385 618.938 223.035C619.498 222.685 620.123 222.51 620.813 222.51C621.403 222.51 621.918 222.63 622.358 222.87C622.808 223.11 623.153 223.425 623.393 223.815V222.63H625.958V231H623.393V229.815C623.143 230.205 622.793 230.52 622.343 230.76C621.903 231 621.388 231.12 620.798 231.12C620.118 231.12 619.498 230.945 618.938 230.595C618.378 230.235 617.933 229.73 617.603 229.08C617.283 228.42 617.123 227.66 617.123 226.8ZM623.393 226.815C623.393 226.175 623.213 225.67 622.853 225.3C622.503 224.93 622.073 224.745 621.563 224.745C621.053 224.745 620.618 224.93 620.258 225.3C619.908 225.66 619.733 226.16 619.733 226.8C619.733 227.44 619.908 227.95 620.258 228.33C620.618 228.7 621.053 228.885 621.563 228.885C622.073 228.885 622.503 228.7 622.853 228.33C623.213 227.96 623.393 227.455 623.393 226.815Z" fill="black"/>
<path d="M10.56 300.4C10.3067 299.933 9.94 299.58 9.46 299.34C8.99333 299.087 8.44 298.96 7.8 298.96C6.69333 298.96 5.80667 299.327 5.14 300.06C4.47333 300.78 4.14 301.747 4.14 302.96C4.14 304.253 4.48667 305.267 5.18 306C5.88667 306.72 6.85333 307.08 8.08 307.08C8.92 307.08 9.62667 306.867 10.2 306.44C10.7867 306.013 11.2133 305.4 11.48 304.6H7.14V302.08H14.58V305.26C14.3267 306.113 13.8933 306.907 13.28 307.64C12.68 308.373 11.9133 308.967 10.98 309.42C10.0467 309.873 8.99333 310.1 7.82 310.1C6.43333 310.1 5.19333 309.8 4.1 309.2C3.02 308.587 2.17333 307.74 1.56 306.66C0.96 305.58 0.66 304.347 0.66 302.96C0.66 301.573 0.96 300.34 1.56 299.26C2.17333 298.167 3.02 297.32 4.1 296.72C5.18 296.107 6.41333 295.8 7.8 295.8C9.48 295.8 10.8933 296.207 12.04 297.02C13.2 297.833 13.9667 298.96 14.34 300.4H10.56ZM15.7944 304.4C15.7944 303.253 16.0077 302.247 16.4344 301.38C16.8744 300.513 17.4677 299.847 18.2144 299.38C18.961 298.913 19.7944 298.68 20.7144 298.68C21.501 298.68 22.1877 298.84 22.7744 299.16C23.3744 299.48 23.8344 299.9 24.1544 300.42V298.84H27.5744V310H24.1544V308.42C23.821 308.94 23.3544 309.36 22.7544 309.68C22.1677 310 21.481 310.16 20.6944 310.16C19.7877 310.16 18.961 309.927 18.2144 309.46C17.4677 308.98 16.8744 308.307 16.4344 307.44C16.0077 306.56 15.7944 305.547 15.7944 304.4ZM24.1544 304.42C24.1544 303.567 23.9144 302.893 23.4344 302.4C22.9677 301.907 22.3944 301.66 21.7144 301.66C21.0344 301.66 20.4544 301.907 19.9744 302.4C19.5077 302.88 19.2744 303.547 19.2744 304.4C19.2744 305.253 19.5077 305.933 19.9744 306.44C20.4544 306.933 21.0344 307.18 21.7144 307.18C22.3944 307.18 22.9677 306.933 23.4344 306.44C23.9144 305.947 24.1544 305.273 24.1544 304.42ZM29.3686 304.4C29.3686 303.253 29.5819 302.247 30.0086 301.38C30.4486 300.513 31.0419 299.847 31.7886 299.38C32.5353 298.913 33.3686 298.68 34.2886 298.68C35.0219 298.68 35.6886 298.833 36.2886 299.14C36.9019 299.447 37.3819 299.86 37.7286 300.38V295.2H41.1486V310H37.7286V308.4C37.4086 308.933 36.9486 309.36 36.3486 309.68C35.7619 310 35.0753 310.16 34.2886 310.16C33.3686 310.16 32.5353 309.927 31.7886 309.46C31.0419 308.98 30.4486 308.307 30.0086 307.44C29.5819 306.56 29.3686 305.547 29.3686 304.4ZM37.7286 304.42C37.7286 303.567 37.4886 302.893 37.0086 302.4C36.5419 301.907 35.9686 301.66 35.2886 301.66C34.6086 301.66 34.0286 301.907 33.5486 302.4C33.0819 302.88 32.8486 303.547 32.8486 304.4C32.8486 305.253 33.0819 305.933 33.5486 306.44C34.0286 306.933 34.6086 307.18 35.2886 307.18C35.9686 307.18 36.5419 306.933 37.0086 306.44C37.4886 305.947 37.7286 305.273 37.7286 304.42ZM42.9428 304.4C42.9428 303.253 43.1561 302.247 43.5828 301.38C44.0228 300.513 44.6161 299.847 45.3628 299.38C46.1095 298.913 46.9428 298.68 47.8628 298.68C48.6495 298.68 49.3361 298.84 49.9228 299.16C50.5228 299.48 50.9828 299.9 51.3028 300.42V298.84H54.7228V310H51.3028V308.42C50.9695 308.94 50.5028 309.36 49.9028 309.68C49.3161 310 48.6295 310.16 47.8428 310.16C46.9361 310.16 46.1095 309.927 45.3628 309.46C44.6161 308.98 44.0228 308.307 43.5828 307.44C43.1561 306.56 42.9428 305.547 42.9428 304.4ZM51.3028 304.42C51.3028 303.567 51.0628 302.893 50.5828 302.4C50.1161 301.907 49.5428 301.66 48.8628 301.66C48.1828 301.66 47.6028 301.907 47.1228 302.4C46.6561 302.88 46.4228 303.547 46.4228 304.4C46.4228 305.253 46.6561 305.933 47.1228 306.44C47.6028 306.933 48.1828 307.18 48.8628 307.18C49.5428 307.18 50.1161 306.933 50.5828 306.44C51.0628 305.947 51.3028 305.273 51.3028 304.42ZM58.917 297.68C58.317 297.68 57.8237 297.507 57.437 297.16C57.0637 296.8 56.877 296.36 56.877 295.84C56.877 295.307 57.0637 294.867 57.437 294.52C57.8237 294.16 58.317 293.98 58.917 293.98C59.5037 293.98 59.9837 294.16 60.357 294.52C60.7437 294.867 60.937 295.307 60.937 295.84C60.937 296.36 60.7437 296.8 60.357 297.16C59.9837 297.507 59.5037 297.68 58.917 297.68ZM60.617 298.84V310H57.197V298.84H60.617Z" fill="black" fill-opacity="0.8"/>
<rect x="163" y="277" width="735.005" height="51" rx="1" fill="#EDF1F5"/>
<rect x="292" y="277" width="606" height="51" rx="25.5" fill="#007370"/>
<rect x="818" y="277" width="240" height="51" rx="25.5" fill="#FFDE59"/>
<path d="M167.74 264.105C166.97 264.105 166.28 263.98 165.67 263.73C165.06 263.48 164.57 263.11 164.2 262.62C163.84 262.13 163.65 261.54 163.63 260.85H166.36C166.4 261.24 166.535 261.54 166.765 261.75C166.995 261.95 167.295 262.05 167.665 262.05C168.045 262.05 168.345 261.965 168.565 261.795C168.785 261.615 168.895 261.37 168.895 261.06C168.895 260.8 168.805 260.585 168.625 260.415C168.455 260.245 168.24 260.105 167.98 259.995C167.73 259.885 167.37 259.76 166.9 259.62C166.22 259.41 165.665 259.2 165.235 258.99C164.805 258.78 164.435 258.47 164.125 258.06C163.815 257.65 163.66 257.115 163.66 256.455C163.66 255.475 164.015 254.71 164.725 254.16C165.435 253.6 166.36 253.32 167.5 253.32C168.66 253.32 169.595 253.6 170.305 254.16C171.015 254.71 171.395 255.48 171.445 256.47H168.67C168.65 256.13 168.525 255.865 168.295 255.675C168.065 255.475 167.77 255.375 167.41 255.375C167.1 255.375 166.85 255.46 166.66 255.63C166.47 255.79 166.375 256.025 166.375 256.335C166.375 256.675 166.535 256.94 166.855 257.13C167.175 257.32 167.675 257.525 168.355 257.745C169.035 257.975 169.585 258.195 170.005 258.405C170.435 258.615 170.805 258.92 171.115 259.32C171.425 259.72 171.58 260.235 171.58 260.865C171.58 261.465 171.425 262.01 171.115 262.5C170.815 262.99 170.375 263.38 169.795 263.67C169.215 263.96 168.53 264.105 167.74 264.105ZM183.839 255.54C184.879 255.54 185.704 255.855 186.314 256.485C186.934 257.115 187.244 257.99 187.244 259.11V264H184.694V259.455C184.694 258.915 184.549 258.5 184.259 258.21C183.979 257.91 183.589 257.76 183.089 257.76C182.589 257.76 182.194 257.91 181.904 258.21C181.624 258.5 181.484 258.915 181.484 259.455V264H178.934V259.455C178.934 258.915 178.789 258.5 178.499 258.21C178.219 257.91 177.829 257.76 177.329 257.76C176.829 257.76 176.434 257.91 176.144 258.21C175.864 258.5 175.724 258.915 175.724 259.455V264H173.159V255.63H175.724V256.68C175.984 256.33 176.324 256.055 176.744 255.855C177.164 255.645 177.639 255.54 178.169 255.54C178.799 255.54 179.359 255.675 179.849 255.945C180.349 256.215 180.739 256.6 181.019 257.1C181.309 256.64 181.704 256.265 182.204 255.975C182.704 255.685 183.249 255.54 183.839 255.54ZM188.527 259.8C188.527 258.94 188.687 258.185 189.007 257.535C189.337 256.885 189.782 256.385 190.342 256.035C190.902 255.685 191.527 255.51 192.217 255.51C192.807 255.51 193.322 255.63 193.762 255.87C194.212 256.11 194.557 256.425 194.797 256.815V255.63H197.362V264H194.797V262.815C194.547 263.205 194.197 263.52 193.747 263.76C193.307 264 192.792 264.12 192.202 264.12C191.522 264.12 190.902 263.945 190.342 263.595C189.782 263.235 189.337 262.73 189.007 262.08C188.687 261.42 188.527 260.66 188.527 259.8ZM194.797 259.815C194.797 259.175 194.617 258.67 194.257 258.3C193.907 257.93 193.477 257.745 192.967 257.745C192.457 257.745 192.022 257.93 191.662 258.3C191.312 258.66 191.137 259.16 191.137 259.8C191.137 260.44 191.312 260.95 191.662 261.33C192.022 261.7 192.457 261.885 192.967 261.885C193.477 261.885 193.907 261.7 194.257 261.33C194.617 260.96 194.797 260.455 194.797 259.815ZM201.783 257.025C202.083 256.565 202.458 256.205 202.908 255.945C203.358 255.675 203.858 255.54 204.408 255.54V258.255H203.703C203.063 258.255 202.583 258.395 202.263 258.675C201.943 258.945 201.783 259.425 201.783 260.115V264H199.218V255.63H201.783V257.025ZM210.299 261.825V264H208.994C208.064 264 207.339 263.775 206.819 263.325C206.299 262.865 206.039 262.12 206.039 261.09V257.76H205.019V255.63H206.039V253.59H208.604V255.63H210.284V257.76H208.604V261.12C208.604 261.37 208.664 261.55 208.784 261.66C208.904 261.77 209.104 261.825 209.384 261.825H210.299ZM213.018 254.76C212.568 254.76 212.198 254.63 211.908 254.37C211.628 254.1 211.488 253.77 211.488 253.38C211.488 252.98 211.628 252.65 211.908 252.39C212.198 252.12 212.568 251.985 213.018 251.985C213.458 251.985 213.818 252.12 214.098 252.39C214.388 252.65 214.533 252.98 214.533 253.38C214.533 253.77 214.388 254.1 214.098 254.37C213.818 254.63 213.458 254.76 213.018 254.76ZM214.293 255.63V264H211.728V255.63H214.293ZM221.252 255.54C222.232 255.54 223.012 255.86 223.592 256.5C224.182 257.13 224.477 258 224.477 259.11V264H221.927V259.455C221.927 258.895 221.782 258.46 221.492 258.15C221.202 257.84 220.812 257.685 220.322 257.685C219.832 257.685 219.442 257.84 219.152 258.15C218.862 258.46 218.717 258.895 218.717 259.455V264H216.152V255.63H218.717V256.74C218.977 256.37 219.327 256.08 219.767 255.87C220.207 255.65 220.702 255.54 221.252 255.54ZM225.749 259.815C225.749 258.945 225.924 258.185 226.274 257.535C226.634 256.885 227.129 256.385 227.759 256.035C228.399 255.685 229.129 255.51 229.949 255.51C230.999 255.51 231.874 255.785 232.574 256.335C233.284 256.885 233.749 257.66 233.969 258.66H231.239C231.009 258.02 230.564 257.7 229.904 257.7C229.434 257.7 229.059 257.885 228.779 258.255C228.499 258.615 228.359 259.135 228.359 259.815C228.359 260.495 228.499 261.02 228.779 261.39C229.059 261.75 229.434 261.93 229.904 261.93C230.564 261.93 231.009 261.61 231.239 260.97H233.969C233.749 261.95 233.284 262.72 232.574 263.28C231.864 263.84 230.989 264.12 229.949 264.12C229.129 264.12 228.399 263.945 227.759 263.595C227.129 263.245 226.634 262.745 226.274 262.095C225.924 261.445 225.749 260.685 225.749 259.815ZM239.151 264.12C238.331 264.12 237.591 263.945 236.931 263.595C236.281 263.245 235.766 262.745 235.386 262.095C235.016 261.445 234.831 260.685 234.831 259.815C234.831 258.955 235.021 258.2 235.401 257.55C235.781 256.89 236.301 256.385 236.961 256.035C237.621 255.685 238.361 255.51 239.181 255.51C240.001 255.51 240.741 255.685 241.401 256.035C242.061 256.385 242.581 256.89 242.961 257.55C243.341 258.2 243.531 258.955 243.531 259.815C243.531 260.675 243.336 261.435 242.946 262.095C242.566 262.745 242.041 263.245 241.371 263.595C240.711 263.945 239.971 264.12 239.151 264.12ZM239.151 261.9C239.641 261.9 240.056 261.72 240.396 261.36C240.746 261 240.921 260.485 240.921 259.815C240.921 259.145 240.751 258.63 240.411 258.27C240.081 257.91 239.671 257.73 239.181 257.73C238.681 257.73 238.266 257.91 237.936 258.27C237.606 258.62 237.441 259.135 237.441 259.815C237.441 260.485 237.601 261 237.921 261.36C238.251 261.72 238.661 261.9 239.151 261.9ZM255.572 255.54C256.612 255.54 257.437 255.855 258.047 256.485C258.667 257.115 258.977 257.99 258.977 259.11V264H256.427V259.455C256.427 258.915 256.282 258.5 255.992 258.21C255.712 257.91 255.322 257.76 254.822 257.76C254.322 257.76 253.927 257.91 253.637 258.21C253.357 258.5 253.217 258.915 253.217 259.455V264H250.667V259.455C250.667 258.915 250.522 258.5 250.232 258.21C249.952 257.91 249.562 257.76 249.062 257.76C248.562 257.76 248.167 257.91 247.877 258.21C247.597 258.5 247.457 258.915 247.457 259.455V264H244.892V255.63H247.457V256.68C247.717 256.33 248.057 256.055 248.477 255.855C248.897 255.645 249.372 255.54 249.902 255.54C250.532 255.54 251.092 255.675 251.582 255.945C252.082 256.215 252.472 256.6 252.752 257.1C253.042 256.64 253.437 256.265 253.937 255.975C254.437 255.685 254.982 255.54 255.572 255.54ZM268.661 259.68C268.661 259.92 268.646 260.17 268.616 260.43H262.811C262.851 260.95 263.016 261.35 263.306 261.63C263.606 261.9 263.971 262.035 264.401 262.035C265.041 262.035 265.486 261.765 265.736 261.225H268.466C268.326 261.775 268.071 262.27 267.701 262.71C267.341 263.15 266.886 263.495 266.336 263.745C265.786 263.995 265.171 264.12 264.491 264.12C263.671 264.12 262.941 263.945 262.301 263.595C261.661 263.245 261.161 262.745 260.801 262.095C260.441 261.445 260.261 260.685 260.261 259.815C260.261 258.945 260.436 258.185 260.786 257.535C261.146 256.885 261.646 256.385 262.286 256.035C262.926 255.685 263.661 255.51 264.491 255.51C265.301 255.51 266.021 255.68 266.651 256.02C267.281 256.36 267.771 256.845 268.121 257.475C268.481 258.105 268.661 258.84 268.661 259.68ZM266.036 259.005C266.036 258.565 265.886 258.215 265.586 257.955C265.286 257.695 264.911 257.565 264.461 257.565C264.031 257.565 263.666 257.69 263.366 257.94C263.076 258.19 262.896 258.545 262.826 259.005H266.036Z" fill="black" fill-opacity="0.8"/>
<path d="M939.765 300.14C939.805 299.07 940.155 298.245 940.815 297.665C941.475 297.085 942.37 296.795 943.5 296.795C944.25 296.795 944.89 296.925 945.42 297.185C945.96 297.445 946.365 297.8 946.635 298.25C946.915 298.7 947.055 299.205 947.055 299.765C947.055 300.425 946.89 300.965 946.56 301.385C946.23 301.795 945.845 302.075 945.405 302.225V302.285C945.975 302.475 946.425 302.79 946.755 303.23C947.085 303.67 947.25 304.235 947.25 304.925C947.25 305.545 947.105 306.095 946.815 306.575C946.535 307.045 946.12 307.415 945.57 307.685C945.03 307.955 944.385 308.09 943.635 308.09C942.435 308.09 941.475 307.795 940.755 307.205C940.045 306.615 939.67 305.725 939.63 304.535H942.12C942.13 304.975 942.255 305.325 942.495 305.585C942.735 305.835 943.085 305.96 943.545 305.96C943.935 305.96 944.235 305.85 944.445 305.63C944.665 305.4 944.775 305.1 944.775 304.73C944.775 304.25 944.62 303.905 944.31 303.695C944.01 303.475 943.525 303.365 942.855 303.365H942.375V301.28H942.855C943.365 301.28 943.775 301.195 944.085 301.025C944.405 300.845 944.565 300.53 944.565 300.08C944.565 299.72 944.465 299.44 944.265 299.24C944.065 299.04 943.79 298.94 943.44 298.94C943.06 298.94 942.775 299.055 942.585 299.285C942.405 299.515 942.3 299.8 942.27 300.14H939.765ZM948.757 302.375C948.757 300.655 949.087 299.3 949.747 298.31C950.417 297.32 951.492 296.825 952.972 296.825C954.452 296.825 955.522 297.32 956.182 298.31C956.852 299.3 957.187 300.655 957.187 302.375C957.187 304.115 956.852 305.48 956.182 306.47C955.522 307.46 954.452 307.955 952.972 307.955C951.492 307.955 950.417 307.46 949.747 306.47C949.087 305.48 948.757 304.115 948.757 302.375ZM954.667 302.375C954.667 301.365 954.557 300.59 954.337 300.05C954.117 299.5 953.662 299.225 952.972 299.225C952.282 299.225 951.827 299.5 951.607 300.05C951.387 300.59 951.277 301.365 951.277 302.375C951.277 303.055 951.317 303.62 951.397 304.07C951.477 304.51 951.637 304.87 951.877 305.15C952.127 305.42 952.492 305.555 952.972 305.555C953.452 305.555 953.812 305.42 954.052 305.15C954.302 304.87 954.467 304.51 954.547 304.07C954.627 303.62 954.667 303.055 954.667 302.375ZM961.511 299.81C961.511 299 961.741 298.375 962.201 297.935C962.671 297.495 963.276 297.275 964.016 297.275C964.756 297.275 965.356 297.495 965.816 297.935C966.276 298.375 966.506 299 966.506 299.81C966.506 300.62 966.276 301.245 965.816 301.685C965.356 302.125 964.756 302.345 964.016 302.345C963.276 302.345 962.671 302.125 962.201 301.685C961.741 301.245 961.511 300.62 961.511 299.81ZM971.696 297.44L965.921 308H963.446L969.221 297.44H971.696ZM964.001 298.775C963.521 298.775 963.281 299.12 963.281 299.81C963.281 300.49 963.521 300.83 964.001 300.83C964.231 300.83 964.411 300.745 964.541 300.575C964.671 300.405 964.736 300.15 964.736 299.81C964.736 299.12 964.491 298.775 964.001 298.775ZM968.651 305.63C968.651 304.82 968.881 304.195 969.341 303.755C969.801 303.315 970.401 303.095 971.141 303.095C971.881 303.095 972.481 303.315 972.941 303.755C973.401 304.195 973.631 304.82 973.631 305.63C973.631 306.44 973.401 307.065 972.941 307.505C972.481 307.945 971.881 308.165 971.141 308.165C970.401 308.165 969.801 307.945 969.341 307.505C968.881 307.065 968.651 306.44 968.651 305.63ZM971.126 304.595C970.896 304.595 970.716 304.68 970.586 304.85C970.466 305.02 970.406 305.28 970.406 305.63C970.406 306.31 970.646 306.65 971.126 306.65C971.356 306.65 971.536 306.565 971.666 306.395C971.796 306.225 971.861 305.97 971.861 305.63C971.861 305.29 971.796 305.035 971.666 304.865C971.536 304.685 971.356 304.595 971.126 304.595Z" fill="black" fill-opacity="0.8"/>
<path d="M229.405 299.435V297.05H233.56V308H230.89V299.435H229.405ZM235.315 302.375C235.315 300.655 235.645 299.3 236.305 298.31C236.975 297.32 238.05 296.825 239.53 296.825C241.01 296.825 242.08 297.32 242.74 298.31C243.41 299.3 243.745 300.655 243.745 302.375C243.745 304.115 243.41 305.48 242.74 306.47C242.08 307.46 241.01 307.955 239.53 307.955C238.05 307.955 236.975 307.46 236.305 306.47C235.645 305.48 235.315 304.115 235.315 302.375ZM241.225 302.375C241.225 301.365 241.115 300.59 240.895 300.05C240.675 299.5 240.22 299.225 239.53 299.225C238.84 299.225 238.385 299.5 238.165 300.05C237.945 300.59 237.835 301.365 237.835 302.375C237.835 303.055 237.875 303.62 237.955 304.07C238.035 304.51 238.195 304.87 238.435 305.15C238.685 305.42 239.05 305.555 239.53 305.555C240.01 305.555 240.37 305.42 240.61 305.15C240.86 304.87 241.025 304.51 241.105 304.07C241.185 303.62 241.225 303.055 241.225 302.375ZM248.069 299.81C248.069 299 248.299 298.375 248.759 297.935C249.229 297.495 249.834 297.275 250.574 297.275C251.314 297.275 251.914 297.495 252.374 297.935C252.834 298.375 253.064 299 253.064 299.81C253.064 300.62 252.834 301.245 252.374 301.685C251.914 302.125 251.314 302.345 250.574 302.345C249.834 302.345 249.229 302.125 248.759 301.685C248.299 301.245 248.069 300.62 248.069 299.81ZM258.254 297.44L252.479 308H250.004L255.779 297.44H258.254ZM250.559 298.775C250.079 298.775 249.839 299.12 249.839 299.81C249.839 300.49 250.079 300.83 250.559 300.83C250.789 300.83 250.969 300.745 251.099 300.575C251.229 300.405 251.294 300.15 251.294 299.81C251.294 299.12 251.049 298.775 250.559 298.775ZM255.209 305.63C255.209 304.82 255.439 304.195 255.899 303.755C256.359 303.315 256.959 303.095 257.699 303.095C258.439 303.095 259.039 303.315 259.499 303.755C259.959 304.195 260.189 304.82 260.189 305.63C260.189 306.44 259.959 307.065 259.499 307.505C259.039 307.945 258.439 308.165 257.699 308.165C256.959 308.165 256.359 307.945 255.899 307.505C255.439 307.065 255.209 306.44 255.209 305.63ZM257.684 304.595C257.454 304.595 257.274 304.68 257.144 304.85C257.024 305.02 256.964 305.28 256.964 305.63C256.964 306.31 257.204 306.65 257.684 306.65C257.914 306.65 258.094 306.565 258.224 306.395C258.354 306.225 258.419 305.97 258.419 305.63C258.419 305.29 258.354 305.035 258.224 304.865C258.094 304.685 257.914 304.595 257.684 304.595Z" fill="black" fill-opacity="0.8"/>
<path d="M935.955 347.86C935.955 348.47 935.815 349.03 935.535 349.54C935.255 350.04 934.825 350.445 934.245 350.755C933.665 351.065 932.945 351.22 932.085 351.22H930.495V355H927.93V344.47H932.085C932.925 344.47 933.635 344.615 934.215 344.905C934.795 345.195 935.23 345.595 935.52 346.105C935.81 346.615 935.955 347.2 935.955 347.86ZM931.89 349.18C932.38 349.18 932.745 349.065 932.985 348.835C933.225 348.605 933.345 348.28 933.345 347.86C933.345 347.44 933.225 347.115 932.985 346.885C932.745 346.655 932.38 346.54 931.89 346.54H930.495V349.18H931.89ZM936.78 350.8C936.78 349.94 936.94 349.185 937.26 348.535C937.59 347.885 938.035 347.385 938.595 347.035C939.155 346.685 939.78 346.51 940.47 346.51C941.06 346.51 941.575 346.63 942.015 346.87C942.465 347.11 942.81 347.425 943.05 347.815V346.63H945.615V355H943.05V353.815C942.8 354.205 942.45 354.52 942 354.76C941.56 355 941.045 355.12 940.455 355.12C939.775 355.12 939.155 354.945 938.595 354.595C938.035 354.235 937.59 353.73 937.26 353.08C936.94 352.42 936.78 351.66 936.78 350.8ZM943.05 350.815C943.05 350.175 942.87 349.67 942.51 349.3C942.16 348.93 941.73 348.745 941.22 348.745C940.71 348.745 940.275 348.93 939.915 349.3C939.565 349.66 939.39 350.16 939.39 350.8C939.39 351.44 939.565 351.95 939.915 352.33C940.275 352.7 940.71 352.885 941.22 352.885C941.73 352.885 942.16 352.7 942.51 352.33C942.87 351.96 943.05 351.455 943.05 350.815ZM950.036 348.025C950.336 347.565 950.711 347.205 951.161 346.945C951.611 346.675 952.111 346.54 952.661 346.54V349.255H951.956C951.316 349.255 950.836 349.395 950.516 349.675C950.196 349.945 950.036 350.425 950.036 351.115V355H947.471V346.63H950.036V348.025ZM958.552 352.825V355H957.247C956.317 355 955.592 354.775 955.072 354.325C954.552 353.865 954.292 353.12 954.292 352.09V348.76H953.272V346.63H954.292V344.59H956.857V346.63H958.537V348.76H956.857V352.12C956.857 352.37 956.917 352.55 957.037 352.66C957.157 352.77 957.357 352.825 957.637 352.825H958.552ZM965.081 346.54C966.061 346.54 966.841 346.86 967.421 347.5C968.011 348.13 968.306 349 968.306 350.11V355H965.756V350.455C965.756 349.895 965.611 349.46 965.321 349.15C965.031 348.84 964.641 348.685 964.151 348.685C963.661 348.685 963.271 348.84 962.981 349.15C962.691 349.46 962.546 349.895 962.546 350.455V355H959.981V346.63H962.546V347.74C962.806 347.37 963.156 347.08 963.596 346.87C964.036 346.65 964.531 346.54 965.081 346.54ZM977.978 350.68C977.978 350.92 977.963 351.17 977.933 351.43H972.128C972.168 351.95 972.333 352.35 972.623 352.63C972.923 352.9 973.288 353.035 973.718 353.035C974.358 353.035 974.803 352.765 975.053 352.225H977.783C977.643 352.775 977.388 353.27 977.018 353.71C976.658 354.15 976.203 354.495 975.653 354.745C975.103 354.995 974.488 355.12 973.808 355.12C972.988 355.12 972.258 354.945 971.618 354.595C970.978 354.245 970.478 353.745 970.118 353.095C969.758 352.445 969.578 351.685 969.578 350.815C969.578 349.945 969.753 349.185 970.103 348.535C970.463 347.885 970.963 347.385 971.603 347.035C972.243 346.685 972.978 346.51 973.808 346.51C974.618 346.51 975.338 346.68 975.968 347.02C976.598 347.36 977.088 347.845 977.438 348.475C977.798 349.105 977.978 349.84 977.978 350.68ZM975.353 350.005C975.353 349.565 975.203 349.215 974.903 348.955C974.603 348.695 974.228 348.565 973.778 348.565C973.348 348.565 972.983 348.69 972.683 348.94C972.393 349.19 972.213 349.545 972.143 350.005H975.353ZM981.896 348.025C982.196 347.565 982.571 347.205 983.021 346.945C983.471 346.675 983.971 346.54 984.521 346.54V349.255H983.816C983.176 349.255 982.696 349.395 982.376 349.675C982.056 349.945 981.896 350.425 981.896 351.115V355H979.331V346.63H981.896V348.025Z" fill="black"/>
<path d="M594.09 300.005C594.01 299.635 593.87 299.36 593.67 299.18C593.47 298.99 593.185 298.895 592.815 298.895C592.245 298.895 591.835 299.145 591.585 299.645C591.335 300.135 591.205 300.915 591.195 301.985C591.415 301.635 591.73 301.36 592.14 301.16C592.56 300.96 593.02 300.86 593.52 300.86C594.5 300.86 595.285 301.17 595.875 301.79C596.475 302.41 596.775 303.275 596.775 304.385C596.775 305.115 596.625 305.755 596.325 306.305C596.035 306.855 595.605 307.285 595.035 307.595C594.475 307.905 593.81 308.06 593.04 308.06C591.5 308.06 590.43 307.58 589.83 306.62C589.23 305.65 588.93 304.26 588.93 302.45C588.93 300.55 589.245 299.14 589.875 298.22C590.515 297.29 591.535 296.825 592.935 296.825C593.685 296.825 594.315 296.975 594.825 297.275C595.345 297.565 595.735 297.95 595.995 298.43C596.265 298.91 596.425 299.435 596.475 300.005H594.09ZM592.905 302.885C592.475 302.885 592.115 303.015 591.825 303.275C591.545 303.525 591.405 303.885 591.405 304.355C591.405 304.835 591.535 305.21 591.795 305.48C592.065 305.75 592.445 305.885 592.935 305.885C593.375 305.885 593.72 305.755 593.97 305.495C594.23 305.225 594.36 304.86 594.36 304.4C594.36 303.93 594.235 303.56 593.985 303.29C593.735 303.02 593.375 302.885 592.905 302.885ZM598.226 302.375C598.226 300.655 598.556 299.3 599.216 298.31C599.886 297.32 600.961 296.825 602.441 296.825C603.921 296.825 604.991 297.32 605.651 298.31C606.321 299.3 606.656 300.655 606.656 302.375C606.656 304.115 606.321 305.48 605.651 306.47C604.991 307.46 603.921 307.955 602.441 307.955C600.961 307.955 599.886 307.46 599.216 306.47C598.556 305.48 598.226 304.115 598.226 302.375ZM604.136 302.375C604.136 301.365 604.026 300.59 603.806 300.05C603.586 299.5 603.131 299.225 602.441 299.225C601.751 299.225 601.296 299.5 601.076 300.05C600.856 300.59 600.746 301.365 600.746 302.375C600.746 303.055 600.786 303.62 600.866 304.07C600.946 304.51 601.106 304.87 601.346 305.15C601.596 305.42 601.961 305.555 602.441 305.555C602.921 305.555 603.281 305.42 603.521 305.15C603.771 304.87 603.936 304.51 604.016 304.07C604.096 303.62 604.136 303.055 604.136 302.375ZM610.98 299.81C610.98 299 611.21 298.375 611.67 297.935C612.14 297.495 612.745 297.275 613.485 297.275C614.225 297.275 614.825 297.495 615.285 297.935C615.745 298.375 615.975 299 615.975 299.81C615.975 300.62 615.745 301.245 615.285 301.685C614.825 302.125 614.225 302.345 613.485 302.345C612.745 302.345 612.14 302.125 611.67 301.685C611.21 301.245 610.98 300.62 610.98 299.81ZM621.165 297.44L615.39 308H612.915L618.69 297.44H621.165ZM613.47 298.775C612.99 298.775 612.75 299.12 612.75 299.81C612.75 300.49 612.99 300.83 613.47 300.83C613.7 300.83 613.88 300.745 614.01 300.575C614.14 300.405 614.205 300.15 614.205 299.81C614.205 299.12 613.96 298.775 613.47 298.775ZM618.12 305.63C618.12 304.82 618.35 304.195 618.81 303.755C619.27 303.315 619.87 303.095 620.61 303.095C621.35 303.095 621.95 303.315 622.41 303.755C622.87 304.195 623.1 304.82 623.1 305.63C623.1 306.44 622.87 307.065 622.41 307.505C621.95 307.945 621.35 308.165 620.61 308.165C619.87 308.165 619.27 307.945 618.81 307.505C618.35 307.065 618.12 306.44 618.12 305.63ZM620.595 304.595C620.365 304.595 620.185 304.68 620.055 304.85C619.935 305.02 619.875 305.28 619.875 305.63C619.875 306.31 620.115 306.65 620.595 306.65C620.825 306.65 621.005 306.565 621.135 306.395C621.265 306.225 621.33 305.97 621.33 305.63C621.33 305.29 621.265 305.035 621.135 304.865C621.005 304.685 620.825 304.595 620.595 304.595Z" fill="white"/>
<path d="M598.855 344.47V355H596.29V348.685L593.935 355H591.865L589.495 348.67V355H586.93V344.47H589.96L592.915 351.76L595.84 344.47H598.855ZM601.99 345.76C601.54 345.76 601.17 345.63 600.88 345.37C600.6 345.1 600.46 344.77 600.46 344.38C600.46 343.98 600.6 343.65 600.88 343.39C601.17 343.12 601.54 342.985 601.99 342.985C602.43 342.985 602.79 343.12 603.07 343.39C603.36 343.65 603.505 343.98 603.505 344.38C603.505 344.77 603.36 345.1 603.07 345.37C602.79 345.63 602.43 345.76 601.99 345.76ZM603.265 346.63V355H600.7V346.63H603.265ZM609.788 352.825V355H608.483C607.553 355 606.828 354.775 606.308 354.325C605.788 353.865 605.528 353.12 605.528 352.09V348.76H604.508V346.63H605.528V344.59H608.093V346.63H609.773V348.76H608.093V352.12C608.093 352.37 608.153 352.55 608.273 352.66C608.393 352.77 608.593 352.825 608.873 352.825H609.788ZM613.782 348.025C614.082 347.565 614.457 347.205 614.907 346.945C615.357 346.675 615.857 346.54 616.407 346.54V349.255H615.702C615.062 349.255 614.582 349.395 614.262 349.675C613.942 349.945 613.782 350.425 613.782 351.115V355H611.217V346.63H613.782V348.025ZM617.123 350.8C617.123 349.94 617.283 349.185 617.603 348.535C617.933 347.885 618.378 347.385 618.938 347.035C619.498 346.685 620.123 346.51 620.813 346.51C621.403 346.51 621.918 346.63 622.358 346.87C622.808 347.11 623.153 347.425 623.393 347.815V346.63H625.958V355H623.393V353.815C623.143 354.205 622.793 354.52 622.343 354.76C621.903 355 621.388 355.12 620.798 355.12C620.118 355.12 619.498 354.945 618.938 354.595C618.378 354.235 617.933 353.73 617.603 353.08C617.283 352.42 617.123 351.66 617.123 350.8ZM623.393 350.815C623.393 350.175 623.213 349.67 622.853 349.3C622.503 348.93 622.073 348.745 621.563 348.745C621.053 348.745 620.618 348.93 620.258 349.3C619.908 349.66 619.733 350.16 619.733 350.8C619.733 351.44 619.908 351.95 620.258 352.33C620.618 352.7 621.053 352.885 621.563 352.885C622.073 352.885 622.503 352.7 622.853 352.33C623.213 351.96 623.393 351.455 623.393 350.815Z" fill="black"/>
</svg>
