<svg width="255" height="278" viewBox="0 0 255 278" fill="none" xmlns="http://www.w3.org/2000/svg">
<rect x="24" y="11" width="230.92" height="266.516" rx="84" fill="#FFEFAC"/>
<path fill-rule="evenodd" clip-rule="evenodd" d="M39.9317 71.3067C39.9317 76.0307 36.099 79.8634 31.3749 79.8634H8.5568C3.83273 79.8634 0 76.0307 0 71.3067V28.5227C0 12.7638 12.7638 0 28.5227 0H29.9488C32.3197 0 34.2272 1.90749 34.2272 4.2784V12.8352C34.2272 15.2061 32.3197 17.1136 29.9488 17.1136H28.5227C22.2299 17.1136 17.1136 22.2299 17.1136 28.5227V39.9317H31.3749C36.099 39.9317 39.9317 43.7645 39.9317 48.4885V71.3067ZM91.2726 71.3067C91.2726 76.0307 87.4399 79.8634 82.7158 79.8634H59.8977C55.1736 79.8634 51.3409 76.0307 51.3409 71.3067V28.5227C51.3409 12.7638 64.1047 0 79.8636 0H81.2897C83.6606 0 85.5681 1.90749 85.5681 4.2784V12.8352C85.5681 15.2061 83.6606 17.1136 81.2897 17.1136H79.8636C73.5708 17.1136 68.4545 22.2299 68.4545 28.5227V39.9317H82.7158C87.4399 39.9317 91.2726 43.7645 91.2726 48.4885V71.3067Z" fill="black"/>
</svg>
