<svg width="101" height="101" viewBox="0 0 101 101" fill="none" xmlns="http://www.w3.org/2000/svg">
<rect width="101" height="101" rx="20" fill="#FFDE59"/>
<path d="M50.4985 53.8039C50.1681 53.8039 49.8376 53.7277 49.5326 53.5498L27.0896 40.5619C26.1746 40.0281 25.8696 38.8589 26.4033 37.9439C26.9371 37.0289 28.0808 36.7238 29.0212 37.2576L50.4985 49.6864L71.8482 37.3339C72.7632 36.8001 73.9324 37.1306 74.4661 38.0202C74.9999 38.9352 74.6697 40.1043 73.7801 40.638L51.4897 53.5498C51.1593 53.7023 50.8289 53.8039 50.4985 53.8039Z" fill="#007370"/>
<path d="M50.5 76.8317C49.4579 76.8317 48.5938 75.9675 48.5938 74.9254V51.8725C48.5938 50.8304 49.4579 49.9662 50.5 49.9662C51.5421 49.9662 52.4063 50.8304 52.4063 51.8725V74.9254C52.4063 75.9675 51.5421 76.8317 50.5 76.8317Z" fill="#007370"/>
<path d="M50.4972 77.8234C48.1843 77.8234 45.973 77.2897 44.2955 76.3493L30.723 68.8262C27.0376 66.7928 24.1401 61.8872 24.1401 57.668V43.2822C24.1401 39.063 27.0376 34.1832 30.723 32.1244L44.2955 24.601C47.7522 22.6693 53.1914 22.6693 56.6735 24.601L70.246 32.1244C73.9314 34.1577 76.8289 39.063 76.8289 43.2822V52.5847C76.8289 53.6268 75.9647 54.4909 74.9226 54.4909C73.8805 54.4909 73.0164 53.6268 73.0164 52.5847V43.2822C73.0164 40.4864 70.856 36.8265 68.416 35.4794L54.8435 27.956C52.5305 26.6598 48.4893 26.6598 46.1764 27.956L32.6038 35.4794C30.1384 36.8519 28.0035 40.4864 28.0035 43.2822V57.668C28.0035 60.4638 30.1638 64.1241 32.6038 65.4712L46.1764 72.9943C48.413 74.2397 52.6322 74.2397 54.8435 72.9943C55.7585 72.4859 56.9276 72.8166 57.436 73.7316C57.9443 74.6466 57.6139 75.8155 56.6989 76.3238C55.0214 77.2897 52.8101 77.8234 50.4972 77.8234Z" fill="#007370"/>
<path d="M68.8 76.2979C63.2592 76.2979 58.7604 71.7992 58.7604 66.2583C58.7604 60.7175 63.2592 56.2188 68.8 56.2188C74.3408 56.2188 78.8396 60.7175 78.8396 66.2583C78.8396 71.7992 74.3408 76.2979 68.8 76.2979ZM68.8 60.0312C65.3688 60.0312 62.5729 62.8271 62.5729 66.2583C62.5729 69.6896 65.3688 72.4854 68.8 72.4854C72.2313 72.4854 75.0271 69.6896 75.0271 66.2583C75.0271 62.8271 72.2313 60.0312 68.8 60.0312Z" fill="#007370"/>
<path d="M78.4571 77.8229C77.9741 77.8229 77.4912 77.645 77.11 77.2638L74.5683 74.7221C73.8312 73.985 73.8312 72.7647 74.5683 72.0277C75.3054 71.2906 76.5254 71.2906 77.2625 72.0277L79.8041 74.5693C80.5412 75.3064 80.5412 76.5267 79.8041 77.2638C79.4229 77.645 78.94 77.8229 78.4571 77.8229Z" fill="#007370"/>
</svg>
