<svg width="101" height="101" viewBox="0 0 101 101" fill="none" xmlns="http://www.w3.org/2000/svg">
<rect width="101" height="101" rx="20" fill="#007370"/>
<path d="M43.3932 65.7655C43.1145 65.7655 42.8105 65.6885 42.5572 65.5601C40.6067 64.5589 38.9348 63.07 37.7189 61.2217C36.7056 59.6815 36.7056 57.7048 37.7189 56.1646C38.9348 54.3163 40.6067 52.8274 42.5572 51.8519C43.4945 51.3641 44.6344 51.7749 45.1157 52.7247C45.597 53.6745 45.217 54.8297 44.2544 55.3174C42.8865 56.0106 41.7213 57.0631 40.8853 58.3466C40.7333 58.5776 40.7333 58.8857 40.8853 59.1424C41.7213 60.4259 42.8865 61.4784 44.2544 62.1716C45.1917 62.6593 45.5717 63.8145 45.1157 64.7643C44.7611 65.3804 44.0771 65.7655 43.3932 65.7655Z" fill="#FFDE59"/>
<path d="M59.1198 65.7655C58.4105 65.7655 57.7518 65.3804 57.4225 64.713C56.9412 63.7631 57.3212 62.608 58.2838 62.1202C59.6517 61.4271 60.817 60.3746 61.6529 59.0911C61.8049 58.86 61.8049 58.552 61.6529 58.2953C60.817 57.0117 59.6517 55.9592 58.2838 55.2661C57.3465 54.7784 56.9666 53.6232 57.4225 52.6733C57.9038 51.7235 59.0438 51.3385 59.981 51.8005C61.9316 52.8017 63.6035 54.2906 64.8194 56.1389C65.8327 57.6792 65.8327 59.6558 64.8194 61.1961C63.6035 63.0444 61.9316 64.5333 59.981 65.5088C59.6771 65.6885 59.3984 65.7655 59.1198 65.7655Z" fill="#FFDE59"/>
<path d="M58.5898 78.6012H43.3908C29.6357 78.6012 23.7587 72.6455 23.7587 58.7063V43.3038C23.7587 29.3645 29.6357 23.4089 43.3908 23.4089H58.5898C72.3449 23.4089 78.2219 29.3645 78.2219 43.3038V58.7063C78.2219 72.6455 72.3449 78.6012 58.5898 78.6012ZM43.3908 27.2595C31.7129 27.2595 27.5585 31.4695 27.5585 43.3038V58.7063C27.5585 70.5405 31.7129 74.7505 43.3908 74.7505H58.5898C70.2677 74.7505 74.4221 70.5405 74.4221 58.7063V43.3038C74.4221 31.4695 70.2677 27.2595 58.5898 27.2595H43.3908Z" fill="#FFDE59"/>
<path d="M26.2424 42.6877C25.2038 42.6877 24.3425 41.8148 24.3425 40.7623C24.3425 39.7098 25.1785 38.837 26.2424 38.837L74.93 38.8114C75.9686 38.8114 76.8299 39.6842 76.8299 40.7367C76.8299 41.7892 75.994 42.662 74.93 42.662L26.2424 42.6877Z" fill="#FFDE59"/>
</svg>
