<svg width="101" height="101" viewBox="0 0 101 101" fill="none" xmlns="http://www.w3.org/2000/svg">
<rect width="101" height="101" rx="20" fill="#007370"/>
<path d="M46.1183 66.8867H36.3275C35.2683 66.8867 34.39 66.0084 34.39 64.9492V51.7226C34.39 49.0359 36.5858 46.8398 39.2724 46.8398H46.1183C47.1774 46.8398 48.0558 47.7181 48.0558 48.7773V64.9231C48.0558 66.0081 47.1774 66.8867 46.1183 66.8867ZM38.265 63.0117H44.1807V50.7409H39.2724C38.7299 50.7409 38.265 51.1798 38.265 51.7481V63.0117Z" fill="#FFDE59"/>
<path d="M55.8815 66.8867H46.0906C45.0315 66.8867 44.1532 66.0084 44.1532 64.9492V39.994C44.1532 37.3074 46.349 35.1115 49.0356 35.1115H52.9623C55.649 35.1115 57.8448 37.3074 57.8448 39.994V64.9492C57.819 66.0084 56.9665 66.8867 55.8815 66.8867ZM48.054 63.0117H53.9698V39.994C53.9698 39.4515 53.5306 38.9865 52.9623 38.9865H49.0356C48.4931 38.9865 48.0281 39.4257 48.0281 39.994V63.0117H48.054Z" fill="#FFDE59"/>
<path d="M65.6749 66.8867H55.884C54.8249 66.8867 53.9465 66.0084 53.9465 64.9492V53.1948C53.9465 52.1356 54.8249 51.2573 55.884 51.2573H62.7299C65.4165 51.2573 67.6124 53.4531 67.6124 56.1398V64.9492C67.6124 66.0084 66.7599 66.8867 65.6749 66.8867ZM57.8215 63.0117H63.7374V56.1398C63.7374 55.5973 63.2982 55.1323 62.7299 55.1323H57.8215V63.0117Z" fill="#FFDE59"/>
<path d="M58.75 78.7708H43.25C29.2225 78.7708 23.2292 72.7775 23.2292 58.75V43.25C23.2292 29.2225 29.2225 23.2292 43.25 23.2292H58.75C72.7775 23.2292 78.7708 29.2225 78.7708 43.25V58.75C78.7708 72.7775 72.7775 78.7708 58.75 78.7708ZM43.25 27.1042C31.3408 27.1042 27.1042 31.3408 27.1042 43.25V58.75C27.1042 70.6592 31.3408 74.8958 43.25 74.8958H58.75C70.6592 74.8958 74.8958 70.6592 74.8958 58.75V43.25C74.8958 31.3408 70.6592 27.1042 58.75 27.1042H43.25Z" fill="#FFDE59"/>
</svg>
